<svg width="22" height="15" viewBox="0 0 22 15" fill="none" xmlns="http://www.w3.org/2000/svg">
<path d="M21.5707 5.77653H19.085L16.4729 0.720897H6.4038L2.61208 5.77653H0V12.0961H2.52782V12.1382C2.52782 13.5285 3.66533 14.666 5.05563 14.666C6.48806 14.666 7.62558 13.5285 7.62558 12.1382V12.0961H13.9451V12.1382C13.9451 13.5285 15.0826 14.666 16.5151 14.666C17.9054 14.666 19.0429 13.5285 19.0429 12.1382V12.0961H21.5707V5.77653ZM17.6526 5.77653H12.7233V1.9848H15.7146L17.6526 5.77653ZM7.03576 1.9848H11.4594V5.77653H4.21303L7.03576 1.9848ZM5.05563 13.4021C4.38155 13.4021 3.79172 12.8123 3.79172 12.1382C3.79172 11.422 4.38155 10.8743 5.05563 10.8743C5.77185 10.8743 6.36167 11.422 6.36167 12.1382C6.36167 12.8123 5.77185 13.4021 5.05563 13.4021ZM16.5151 13.4021C15.7989 13.4021 15.209 12.8123 15.209 12.1382C15.209 11.422 15.7989 10.8743 16.5151 10.8743C17.1891 10.8743 17.779 11.422 17.779 12.1382C17.779 12.8123 17.1891 13.4021 16.5151 13.4021ZM20.3068 10.8322H18.6637C18.2003 10.0738 17.3998 9.61038 16.5151 9.61038C15.5882 9.61038 14.7877 10.0738 14.3243 10.8322H7.24641C6.78297 10.0738 5.9825 9.61038 5.05563 9.61038C4.1709 9.61038 3.37042 10.0738 2.90699 10.8322H1.26391V7.04044H20.3068V10.8322Z" fill="#6D7E9C"/>
</svg>
