<svg width="82" height="76" viewBox="0 0 82 76" fill="none" xmlns="http://www.w3.org/2000/svg">
<path d="M43.9124 45.1727L43.1337 43.2089L78.9128 29.0649L68.383 2.43576L2.42818 28.5147L8.48027 43.8099L6.51657 44.5886L0.0751495 28.3115C-0.0264236 28.0491 -0.0264153 27.7613 0.0836222 27.4989C0.19366 27.245 0.405221 27.0419 0.667618 26.9318L68.5862 0.0741858C68.8486 -0.0273874 69.1363 -0.027387 69.3987 0.091115C69.6527 0.201153 69.8559 0.412762 69.9659 0.67516L81.2744 29.2765C81.3759 29.5389 81.3759 29.8267 81.2574 30.0891C81.1474 30.343 80.9358 30.5461 80.6734 30.6562L43.9124 45.1896V45.1727Z" fill="#567490"/>
<path d="M18.0784 38.765C17.6552 38.765 17.2574 38.5111 17.0966 38.0963L11.4423 23.7999C11.2307 23.2582 11.4932 22.6403 12.0349 22.4286C12.5851 22.217 13.1945 22.4794 13.4061 23.0212L19.0603 37.3176C19.2719 37.8593 19.0096 38.4772 18.4678 38.6888C18.3409 38.7396 18.2054 38.765 18.0784 38.765Z" fill="#567490"/>
<path d="M22.8949 28.5999C22.4717 28.5999 22.0738 28.346 21.913 27.9312C21.7014 27.3895 21.9639 26.7716 22.5056 26.56L65.5641 9.53802C66.1059 9.32641 66.7238 9.58881 66.9354 10.1305C67.147 10.6723 66.8845 11.2902 66.3428 11.5018L23.2842 28.5237C23.1573 28.5745 23.0219 28.5999 22.8949 28.5999Z" fill="#567490"/>
<path d="M25.2055 34.4484C24.7822 34.4484 24.3844 34.1945 24.2236 33.7797C24.012 33.238 24.2744 32.6201 24.8161 32.4085L40.8986 26.0517C41.4403 25.8401 42.0582 26.1025 42.2698 26.6442C42.4814 27.1859 42.2189 27.8038 41.6772 28.0154L25.5948 34.3722C25.4678 34.423 25.3324 34.4484 25.2055 34.4484Z" fill="#567490"/>
<path d="M58.1917 21.4124C57.7685 21.4124 57.3707 21.1584 57.2099 20.7437C56.9983 20.2019 57.2607 19.584 57.8024 19.3724L67.8751 15.3857C68.4168 15.1741 69.0347 15.4365 69.2463 15.9782C69.4579 16.5199 69.1954 17.1378 68.6537 17.3494L58.5811 21.3362C58.4542 21.387 58.3187 21.4124 58.1917 21.4124Z" fill="#567490"/>
<path d="M59.182 32.4766C58.7588 32.4766 58.3609 32.2227 58.2001 31.8079C57.9885 31.2662 58.251 30.6483 58.7927 30.4367L63.6682 28.5068C64.2099 28.2952 64.8278 28.5576 65.0395 29.0993C65.2511 29.641 64.9886 30.2589 64.4469 30.4705L59.5714 32.4004C59.4444 32.4512 59.309 32.4766 59.182 32.4766Z" fill="#567490"/>
<path d="M67.1469 29.3269C66.7237 29.3269 66.3258 29.0729 66.165 28.6582C65.9534 28.1164 66.2157 27.4985 66.7575 27.2869L71.7938 25.2978C72.3356 25.0862 72.9535 25.3486 73.1651 25.8903C73.3767 26.432 73.1142 27.0499 72.5725 27.2615L67.5362 29.2507C67.4093 29.3015 67.2739 29.3269 67.1469 29.3269Z" fill="#567490"/>
<path d="M80.2832 76.0002H7.2436C6.65955 76.0002 6.18555 75.5262 6.18555 74.9421V44.1909C6.18555 43.6068 6.65955 43.1328 7.2436 43.1328H80.2832C80.8672 43.1328 81.3412 43.6068 81.3412 44.1909V74.9421C81.3412 75.5262 80.8672 76.0002 80.2832 76.0002ZM8.30165 73.8841H79.2251V45.2489H8.30165V73.8841Z" fill="#567490"/>
<path d="M19.476 66.2153C18.892 66.2153 18.418 65.7413 18.418 65.1573V44.1909C18.418 43.6068 18.892 43.1328 19.476 43.1328C20.0601 43.1328 20.5341 43.6068 20.5341 44.1909V65.1573C20.5341 65.7413 20.0601 66.2153 19.476 66.2153Z" fill="#567490"/>
<path d="M73.9952 52.9423H27.6948C27.1107 52.9423 26.6367 52.4683 26.6367 51.8842C26.6367 51.3002 27.1107 50.8262 27.6948 50.8262H73.9952C74.5792 50.8262 75.0532 51.3002 75.0532 51.8842C75.0532 52.4683 74.5792 52.9423 73.9952 52.9423Z" fill="#567490"/>
<path d="M44.9882 59.2313H27.687C27.1029 59.2313 26.6289 58.7573 26.6289 58.1733C26.6289 57.5892 27.1029 57.1152 27.687 57.1152H44.9882C45.5722 57.1152 46.0463 57.5892 46.0463 58.1733C46.0463 58.7573 45.5722 59.2313 44.9882 59.2313Z" fill="#567490"/>
<path d="M73.9941 59.2313H63.1596C62.5756 59.2313 62.1016 58.7573 62.1016 58.1733C62.1016 57.5892 62.5756 57.1152 63.1596 57.1152H73.9941C74.5782 57.1152 75.0522 57.5892 75.0522 58.1733C75.0522 58.7573 74.5782 59.2313 73.9941 59.2313Z" fill="#567490"/>
</svg>
