<svg width="119" height="47" viewBox="0 0 119 47" fill="none" xmlns="http://www.w3.org/2000/svg">
<path d="M92.0084 35.5488L37.041 35.5767" stroke="#0E3860" stroke-width="1.85826" stroke-linecap="round" stroke-linejoin="round"/>
<path d="M18.9787 35.5772H8.16362C6.76993 35.5772 5.45984 34.7409 4.72583 33.4402C2.39371 29.4914 1.34378 24.79 1 19.7076C1.39024 16.5393 3.91746 14.17 6.85352 14.3187C15.1785 14.6624 31.7636 15.415 37.3291 15.6473C38.4069 15.7031 39.3267 14.8389 39.4568 13.6868L40.5624 4.39551C40.7483 3.0111 41.7703 1.97049 43.0339 1.88687C54.9732 1.22719 66.9962 1.97048 79.1492 4.59992C79.9762 4.78574 79.0563 4.34906 91.7482 12.1259C92.696 12.7019 93.7738 12.9342 94.8237 12.8134C94.8237 12.8134 107.107 13.4453 113.09 17.3662C113.908 17.8865 114.531 18.6391 114.93 19.5589C116.268 22.6158 117.216 25.7841 117.792 29.0454C118.368 32.4181 116.008 35.5307 112.886 35.5307H110.08" stroke="#0E3860" stroke-width="1.85826" stroke-linecap="round" stroke-linejoin="round"/>
<path d="M101.041 45.4722C106.024 45.4722 110.063 41.0336 110.063 35.5584C110.063 30.0831 106.024 25.6445 101.041 25.6445C96.0587 25.6445 92.0195 30.0831 92.0195 35.5584C92.0195 41.0336 96.0587 45.4722 101.041 45.4722Z" stroke="#0E3860" stroke-width="1.85826" stroke-linecap="round" stroke-linejoin="round"/>
<path d="M28.0102 45.4722C32.9928 45.4722 37.0321 41.0336 37.0321 35.5584C37.0321 30.0831 32.9928 25.6445 28.0102 25.6445C23.0275 25.6445 18.9883 30.0831 18.9883 35.5584C18.9883 41.0336 23.0275 45.4722 28.0102 45.4722Z" stroke="#0E3860" stroke-width="1.85826" stroke-linecap="round" stroke-linejoin="round"/>
<path d="M38.5762 15.2571H87.2162C87.7458 15.2571 88.2661 15.1456 88.7493 14.9319L93.6551 12.7949" stroke="#0E3860" stroke-width="1.85826" stroke-linecap="round" stroke-linejoin="round"/>
<path d="M62.0605 2.0918L63.1569 15.2576" stroke="#0E3860" stroke-width="1.85826" stroke-linecap="round" stroke-linejoin="round"/>
</svg>
