<svg width="76" height="76" viewBox="0 0 76 76" fill="none" xmlns="http://www.w3.org/2000/svg">
<path d="M75.4541 42.5367C75.4541 29.4412 64.7995 18.7867 51.7041 18.7867C51.6037 18.7867 51.5096 18.7867 51.4092 18.7929C48.1338 7.69914 37.8745 0 26.2474 0C11.7715 0 0 11.7715 0 26.2411C0 36.8643 6.38771 46.3643 16.0634 50.4303C9.84511 53.7371 5.80416 58.4683 4.35469 60.3507C3.84643 61.0096 3.84643 61.9257 4.35469 62.5845C6.55086 65.4458 14.7081 74.8517 27.4019 75.9059C28.1737 75.9686 28.9455 76 29.7173 76C37.5733 76 45.6113 72.7057 53.6932 66.1988C65.9164 65.1823 75.4478 54.8352 75.4478 42.5367H75.4541ZM69.9448 52.3441H60.5954L57.5898 48.5667L59.8989 40.6417L64.3854 37.9184L71.7583 43.39L73.8854 42.5304C73.8854 46.6341 72.7434 50.4993 70.7668 53.8187L69.9511 52.3378L69.9448 52.3441ZM29.9683 46.9478C29.7612 45.9439 29.6232 44.9148 29.5604 43.8732L31.6876 45.0277L37.8996 38.571L39.0855 39.1483L43.6473 41.3758L45.423 49.5079H56.3411L59.3154 53.2477L56.8118 59.397C47.7635 51.2021 38.753 47.0168 29.9683 46.9415V46.9478ZM28.3369 46.9792C27.1196 40.2401 24.5343 35.4273 21.4095 31.995L26.1658 27.3141L30.5518 31.6688C28.889 34.9254 27.9478 38.6149 27.9478 42.5304C27.9478 44.0363 28.0984 45.5234 28.3745 46.9792C28.362 46.9792 28.3494 46.9792 28.3369 46.9792ZM44.3187 9.4498C46.7784 12.0915 48.6797 15.2853 49.7966 18.8682C45.2285 19.2259 41.0495 20.8573 37.5921 23.3986C35.8227 22.6519 34.3042 21.6982 32.999 20.5938L44.3187 9.44353V9.4498ZM58.3177 40.4785L56.1341 47.9581H46.6843L45.2034 41.175L51.7355 36.2493L53.2853 37.247L58.3114 40.4785H58.3177ZM50.9198 34.9065L44.2434 39.9389L39.3114 37.5294L38.3388 37.0525L35.9168 31.0036L33.6077 29.6483C36.0674 26.1846 39.5059 23.4676 43.5406 21.8864V23.9508L50.9135 29.1526V34.9003L50.9198 34.9065ZM32.7543 30.966L34.6681 32.0892L36.8141 37.4478L31.3864 43.0888L29.5353 42.0786C29.6169 38.0063 30.7777 34.21 32.7543 30.966ZM36.1991 24.503C34.2916 26.1407 32.6539 28.0859 31.3487 30.2507L27.289 26.2223L31.8758 21.7044C33.1245 22.7711 34.5551 23.7249 36.1991 24.503ZM26.1721 25.1179L9.28038 8.34544C13.0829 4.74373 18.0211 2.33421 23.499 1.72556C23.5869 4.66215 24.3775 14.2374 30.7275 20.6377L26.1783 25.1179H26.1721ZM25.0552 26.216L20.324 30.8781C13.4719 24.2771 4.6496 23.5555 1.71929 23.5116C2.31539 18.1153 4.66215 13.2335 8.17602 9.45608L25.0552 26.2097V26.216ZM65.3392 36.676L67.4098 29.7675L69.2358 28.9706C71.8273 32.3151 73.4838 36.4125 73.8164 40.8738L71.9841 41.6143L65.3392 36.6823V36.676ZM68.1879 27.7157L66.111 28.6255L63.7642 36.469L60.6205 38.3765L59.2464 39.211L55.6572 36.9019L52.4947 34.8689V29.1651L60.0244 23.9633V21.9805C63.1681 23.2543 65.9604 25.2308 68.2005 27.7157H68.1879ZM58.4432 21.4095V23.1413L51.7041 27.7972L45.1093 23.1476V21.353C46.929 20.7946 48.8554 20.4557 50.8507 20.3804C51.1268 20.3679 51.4092 20.3616 51.6978 20.3616C54.0509 20.3616 56.316 20.7318 58.4432 21.4158V21.4095ZM43.2081 8.33917L31.8382 19.5396C25.7893 13.4531 25.1242 4.20409 25.0614 1.60007C25.4567 1.58124 25.852 1.56869 26.2474 1.56869C32.7166 1.56869 38.7341 4.1037 43.2081 8.33289V8.33917ZM1.56869 26.2411C1.56869 25.8458 1.58124 25.4567 1.60007 25.0677C4.20409 25.0489 12.6939 25.5258 19.2635 31.926L8.0819 42.9445C3.99075 38.4894 1.57497 32.5786 1.57497 26.2411H1.56869ZM9.17371 44.0677L20.3428 33.0618C23.2166 36.2807 25.6073 40.7923 26.7682 47.0984C23.5241 47.4435 20.5875 48.322 17.9772 49.4954C14.6202 48.3032 11.6397 46.4333 9.16744 44.0677H9.17371ZM27.5337 74.3435C15.4799 73.3458 7.69914 64.3603 5.59709 61.6308C5.5218 61.5367 5.5218 61.4112 5.59709 61.3108C7.69287 58.5812 15.4799 49.5958 27.5337 48.5981C28.2616 48.5353 28.9832 48.5102 29.711 48.5102C38.4267 48.5102 47.4373 52.7959 56.5419 61.2794C56.611 61.3421 56.6235 61.43 56.6235 61.4676C56.6235 61.5053 56.611 61.5931 56.5419 61.6559C46.678 70.8484 36.9082 75.1153 27.5337 74.3372V74.3435ZM55.9584 64.3038C56.5106 63.8207 57.0627 63.325 57.6149 62.8104C57.9851 62.4653 58.1922 61.9822 58.1922 61.4739C58.1922 60.9657 57.9789 60.4762 57.6149 60.1374C57.6087 60.1311 57.5961 60.1248 57.5898 60.1123L58.1357 60.3382L60.746 53.9254H69.0225L69.8005 55.3309C66.569 59.8864 61.6622 63.1932 55.9584 64.3101V64.3038Z" fill="#567490"/>
<path d="M43.2344 59.8554H40.9064V57.2576C40.9064 56.7368 40.486 56.3164 39.9652 56.3164C39.4444 56.3164 39.024 56.7368 39.024 57.2576V59.8554H35.9744V57.2576C35.9744 56.7368 35.554 56.3164 35.0332 56.3164C34.5124 56.3164 34.092 56.7368 34.092 57.2576V59.8554H31.0425V57.2576C31.0425 56.7368 30.6221 56.3164 30.1013 56.3164C29.5805 56.3164 29.16 56.7368 29.16 57.2576V59.8554H26.1105V57.2576C26.1105 56.7368 25.6901 56.3164 25.1693 56.3164C24.6485 56.3164 24.2281 56.7368 24.2281 57.2576V59.8554H21.1785V57.2576C21.1785 56.7368 20.7581 56.3164 20.2373 56.3164C19.7165 56.3164 19.2961 56.7368 19.2961 57.2576V59.8554H16.4725C15.9517 59.8554 15.5312 60.2758 15.5312 60.7966C15.5312 61.3174 15.9517 61.7378 16.4725 61.7378H19.2961V63.8022C19.2961 64.323 19.7165 64.7434 20.2373 64.7434C20.7581 64.7434 21.1785 64.323 21.1785 63.8022V61.7378H24.2281V63.8022C24.2281 64.323 24.6485 64.7434 25.1693 64.7434C25.6901 64.7434 26.1105 64.323 26.1105 63.8022V61.7378H29.16V63.8022C29.16 64.323 29.5805 64.7434 30.1013 64.7434C30.6221 64.7434 31.0425 64.323 31.0425 63.8022V61.7378H34.092V63.8022C34.092 64.323 34.5124 64.7434 35.0332 64.7434C35.554 64.7434 35.9744 64.323 35.9744 63.8022V61.7378H39.024V63.8022C39.024 64.323 39.4444 64.7434 39.9652 64.7434C40.486 64.7434 40.9064 64.323 40.9064 63.8022V61.7378H43.2344C43.7552 61.7378 44.1756 61.3174 44.1756 60.7966C44.1756 60.2758 43.7552 59.8554 43.2344 59.8554Z" fill="#567490"/>
</svg>
