<svg width="119" height="53" viewBox="0 0 119 53" fill="none" xmlns="http://www.w3.org/2000/svg">
<path d="M88.2232 41.4414H32.9863" stroke="#0E3860" stroke-width="1.85826" stroke-linecap="round" stroke-linejoin="round"/>
<path d="M13.2323 41.4408H5.27892C3.83876 41.4408 2.5194 40.586 2.00837 39.2202C1.24649 37.1482 0.884126 35.1134 1.03279 33.1158V33.0972C1.27436 29.3807 3.21625 25.8314 7.4345 22.4679C12.3682 20.0801 17.6271 18.3612 23.397 17.5528C25.023 17.3298 26.5932 16.8653 28.0984 16.187H28.117C28.8417 15.8711 29.5757 15.4995 30.2633 15.0628L47.4243 4.545C48.3999 3.95035 49.4405 3.53226 50.5462 3.30926C56.3161 2.14785 62.1418 1.42313 68.0603 1.10723C78.16 0.586914 88.4919 1.29305 99.0376 3.19777C100.571 3.47651 101.974 4.26625 103.051 5.38121L114.703 17.4785C115.846 18.6585 116.645 20.1265 116.998 21.7154C117.834 25.4133 118.029 29.2413 117.685 33.1994C117.295 37.8451 113.374 41.4129 108.701 41.4129H107.957" stroke="#0E3860" stroke-width="1.85826" stroke-linecap="round" stroke-linejoin="round"/>
<path d="M28.1152 16.1961L38.5215 19.8754C39.3577 20.1728 40.2497 20.3028 41.1324 20.275L91.7421 18.3795C93.461 18.3145 94.8176 16.9022 94.8176 15.1833V3.66211" stroke="#0E3860" stroke-width="1.85826" stroke-linecap="round" stroke-linejoin="round"/>
<path d="M68.0781 0.949219V19.3181" stroke="#0E3860" stroke-width="1.85826" stroke-linecap="round" stroke-linejoin="round"/>
<path d="M57.6152 26.1387H59.4363" stroke="#0E3860" stroke-width="1.85826" stroke-linecap="round" stroke-linejoin="round"/>
<path d="M82.6113 26.1387H84.4324" stroke="#0E3860" stroke-width="1.85826" stroke-linecap="round" stroke-linejoin="round"/>
<path d="M98.1008 51.3266C103.561 51.3266 107.987 46.9005 107.987 41.4406C107.987 35.9808 103.561 31.5547 98.1008 31.5547C92.6409 31.5547 88.2148 35.9808 88.2148 41.4406C88.2148 46.9005 92.6409 51.3266 98.1008 51.3266Z" stroke="#0E3860" stroke-width="1.85826" stroke-linecap="round" stroke-linejoin="round"/>
<path d="M23.1106 51.3266C28.5704 51.3266 32.9965 46.9005 32.9965 41.4406C32.9965 35.9808 28.5704 31.5547 23.1106 31.5547C17.6507 31.5547 13.2246 35.9808 13.2246 41.4406C13.2246 46.9005 17.6507 51.3266 23.1106 51.3266Z" stroke="#0E3860" stroke-width="1.85826" stroke-linecap="round" stroke-linejoin="round"/>
<path d="M117.025 21.7344H107.984" stroke="#0E3860" stroke-width="1.85826" stroke-linecap="round" stroke-linejoin="round"/>
</svg>
