<svg width="95" height="76" viewBox="0 0 95 76" fill="none" xmlns="http://www.w3.org/2000/svg">
<path d="M62.5048 46.1254L61.1719 44.7924L71.5267 34.4376L80.9702 24.2636C81.2564 23.9172 88.6441 14.8803 78.9445 5.93376C69.6516 -2.64376 62.422 4.72132 58.9428 8.2683L57.7304 9.48827L56.5179 8.2683C53.0387 4.72885 45.8092 -2.64376 36.5162 5.93376C26.779 14.9179 34.1968 23.9172 34.5131 24.3013L43.9566 34.4678L54.2888 44.7924L52.9559 46.1254L42.6011 35.7706L33.1049 25.5514C32.9844 25.4158 24.196 14.7447 35.236 4.55564C45.7414 -5.14396 54.0704 3.09467 57.7228 6.82239C61.3828 3.1022 69.7042 -5.13643 80.2096 4.55564C91.2572 14.7447 82.4613 25.4158 82.3709 25.5212L72.8747 35.748L62.4973 46.1254H62.5048Z" fill="#567490"/>
<path d="M3.08759 69.2599C1.39317 69.2599 0.00753075 67.8667 0 66.1723V38.1579C0 36.4635 1.39317 35.0778 3.08759 35.0703H16.7936C18.488 35.0703 19.8737 36.4635 19.8812 38.1579V66.1723C19.8812 67.8667 18.488 69.2524 16.7936 69.2599H3.08759ZM3.08759 36.5765C2.21402 36.5765 1.50615 37.2919 1.50615 38.1579V66.1723C1.50615 67.0383 2.22155 67.7538 3.08759 67.7538H16.7936C17.6596 67.7538 18.375 67.0383 18.375 66.1723V38.1579C18.375 37.2919 17.6596 36.5765 16.7936 36.5765H3.09513H3.08759Z" fill="#567490"/>
<path d="M47.8729 75.9847C43.8289 75.9847 39.7547 74.7873 35.6731 72.4001L22.0047 66.5186H21.4099V65.7655L21.4023 37.7285L36.863 37.7436C42.3906 38.7376 47.8955 41.8328 52.5721 44.7698H61.9027C64.4782 44.9204 66.5567 46.3889 67.1215 48.4222C67.6486 50.3124 66.7525 52.2779 64.7192 53.6786C61.1572 56.2918 56.4504 56.1186 51.9395 55.7195C51.3069 55.6818 50.8099 55.9002 50.5463 56.3219C50.3204 56.6909 50.3054 57.1729 50.5162 57.5494C50.7723 58.0088 51.2994 58.2649 52.0148 58.2649C52.67 58.3176 53.3327 58.2498 53.9804 58.182C54.4623 58.1368 54.9593 58.0841 55.4413 58.0841C61.865 58.0841 65.6003 56.5479 67.9273 52.9406L69.4635 49.3485L84.0054 42.1415C88.2377 40.7483 91.6341 42.5858 93.1176 45.0183C94.7895 47.7595 94.2322 51.1483 91.6868 53.6636L91.6039 53.7389C81.6935 60.9759 71.0224 67.2566 59.8844 72.4076C55.9383 74.8024 51.9245 75.9998 47.8805 75.9998L47.8729 75.9847ZM22.9085 65.2609L36.4035 71.0747C44.1903 75.6458 51.6232 75.6534 59.1314 71.0747L59.2067 71.037C70.2467 65.9312 80.835 59.7108 90.6626 52.534C93.08 50.1166 92.8541 47.4658 91.8224 45.7864C90.6551 43.8736 87.9364 42.4352 84.5099 43.5423L70.6082 50.4329L69.2075 53.6862C65.894 58.8748 60.3814 59.5752 55.4262 59.5752C55.0195 59.5752 54.5752 59.6204 54.1083 59.6656C53.4004 59.7334 52.6625 59.8087 51.932 59.7484C50.7271 59.7484 49.7029 59.1987 49.1833 58.2573C48.7088 57.3913 48.7389 56.337 49.2586 55.5011C49.8158 54.6124 50.8249 54.1455 52.0374 54.1983C56.4654 54.5899 60.6827 54.748 63.8456 52.4285C65.3668 51.3818 66.022 50.0639 65.6681 48.8062C65.2765 47.3905 63.7402 46.3663 61.8575 46.2533H52.1353L51.9545 46.1404C47.3758 43.2561 41.9839 40.1835 36.6596 39.2121H22.9085V65.2459V65.2609Z" fill="#567490"/>
<path d="M12.9984 64.0634C11.1082 64.0634 9.57198 62.5271 9.56445 60.6369C9.56445 58.7391 11.1007 57.1953 12.9909 57.1953H12.9984C14.8886 57.1953 16.425 58.7316 16.4325 60.6218C16.4325 61.5406 16.0785 62.3991 15.4308 63.0542C14.7832 63.7019 13.9247 64.0634 13.006 64.0634H12.9984ZM12.9984 58.7015C11.9366 58.7015 11.0781 59.5675 11.0781 60.6293C11.0781 61.149 11.2815 61.6309 11.6429 61.9924C12.0044 62.3539 12.4863 62.5572 12.9984 62.5572C13.5105 62.5572 14.0001 62.3539 14.3615 61.9924C14.723 61.6309 14.9263 61.1414 14.9188 60.6293C14.9188 59.5675 14.0527 58.709 12.9909 58.709L12.9984 58.7015Z" fill="#567490"/>
<path d="M60.2607 32.7893H56.7965C55.3205 32.7893 54.1231 31.5919 54.1231 30.1159V27.5178H51.525C50.049 27.5178 48.8516 26.3204 48.8516 24.8443V21.3727C48.8516 19.8966 50.049 18.6993 51.525 18.6993H54.1231V16.1011C54.1231 14.6251 55.3205 13.4277 56.7965 13.4277H60.2607C61.7367 13.4277 62.9341 14.6251 62.9341 16.1011V18.6993H65.5322C67.0082 18.6993 68.2056 19.8966 68.2056 21.3727V24.8443C68.2056 26.3204 67.0082 27.5178 65.5322 27.5178H62.9341V30.1159C62.9341 31.5919 61.7367 32.7893 60.2607 32.7893ZM51.5175 20.5819C51.0807 20.5819 50.7267 20.9359 50.7267 21.3727V24.8443C50.7267 25.2811 51.0807 25.6351 51.5175 25.6351H55.9982V30.1159C55.9982 30.5527 56.3522 30.9066 56.789 30.9066H60.2531C60.6899 30.9066 61.0439 30.5527 61.0439 30.1159V25.6351H65.5246C65.9614 25.6351 66.3154 25.2811 66.3154 24.8443V21.3727C66.3154 20.9359 65.9614 20.5819 65.5246 20.5819H61.0439V16.1011C61.0439 15.6644 60.6899 15.3104 60.2531 15.3104H56.789C56.3522 15.3104 55.9982 15.6644 55.9982 16.1011V20.5819H51.5175Z" fill="#567490"/>
</svg>
