<svg width="70" height="76" viewBox="0 0 70 76" fill="none" xmlns="http://www.w3.org/2000/svg">
<path d="M40.5 21L39.9224 20.4671C39.9224 20.4671 39.914 20.459 39.9057 20.4509L39.847 20.3944C37.5866 18.2626 30.2864 10.9953 31.0566 6.9256C31.2492 5.90817 31.919 5.13299 32.9906 4.6808C36.8583 3.04969 39.261 4.6808 40.5084 6.11004C41.7558 4.6808 44.1501 3.04969 48.0179 4.6808C49.0811 5.13299 49.7509 5.90817 49.9434 6.9256C50.7136 10.9872 43.4051 18.2626 41.1531 20.3944L40.5 20.9919V21ZM36.0379 5.63363C35.3431 5.63363 34.5561 5.79513 33.6604 6.17464C32.9236 6.48149 32.7646 6.9256 32.706 7.23244C32.2623 9.56606 36.3393 14.7339 40.5 18.7552C44.6524 14.7339 48.7379 9.56606 48.2942 7.22437C48.2356 6.91753 48.0765 6.48148 47.3482 6.16657C44.0497 4.76962 42.1995 6.35229 41.2284 7.9188L40.5084 9.08157L39.7884 7.9188C39.0768 6.77218 37.8964 5.62556 36.0379 5.62556V5.63363Z" fill="#567490"/>
<path d="M18.528 55.9919L17.4944 55.9515C6.55655 55.4667 3.521 44.4929 3.48845 44.3798L3.19548 43.2727L4.35115 43.3697C12.2616 44.0485 16.3306 40.0646 17.7955 38.1657C15.175 37.6242 9.01432 36.0323 4.89636 32.3556C-6.05776 21.0586 4.77427 4.75152 4.88006 4.5899L6.40192 2.34343L6.36943 5.05051C6.28805 11.7172 8.96554 16.0242 10.5444 17.9879C12.2371 7.71717 20.7905 0.727271 21.6287 0.0646449C21.6613 0.0404024 21.6856 0.0161616 21.7101 0L22.6866 1.29293C22.8006 1.20404 22.8413 1.12323 22.8413 1.12323C22.8169 1.17172 22.2309 2.4 22.532 9.74545C23.0936 17.7616 29.7425 23.9434 31.7527 25.6404C33.2176 24.1939 34.6011 23.9354 35.5451 23.9919C36.9449 24.0808 38.2227 24.897 39.1423 26.303C40.0375 27.6687 41.0141 28.6545 41.6733 29.2364C41.9988 29.5192 42.0883 29.9798 41.9092 30.3677C41.722 30.7636 41.2989 30.9818 40.8594 30.9091C39.4759 30.6828 38.1087 31.7172 37.6123 32.1455C37.4007 33.8424 36.0579 41.4545 28.8473 42.7798C16.5911 45.3414 18.2594 54.5939 18.3408 54.9899L18.5361 56L18.528 55.9919ZM5.43351 45.0505C6.39383 47.5394 9.42127 53.4707 16.6318 54.2626C16.4934 51.4182 17.177 43.5636 28.5299 41.1879C35.3824 39.9273 36.0008 32.0323 36.0253 31.701L36.0497 31.402L36.2613 31.1838C36.3345 31.1111 37.6936 29.7535 39.5003 29.3576C38.9551 28.7677 38.3528 28.0404 37.7913 27.1758C37.1565 26.2061 36.3264 25.6485 35.4556 25.5919C34.4872 25.5434 33.4373 26.1091 32.4688 27.2566L31.9724 27.8465L31.3539 27.3859C30.9551 27.0869 21.6287 20.0081 20.9125 9.82626C20.7742 6.49697 20.8149 4.30707 20.9207 2.86869C18.0479 5.66465 12.6033 11.9273 11.9523 19.8788L11.822 21.4545L10.6094 20.4202C10.3897 20.2343 5.70212 16.1455 4.87202 7.87879C2.46309 12.598 -1.58984 23.3212 6.02759 31.1838C10.8536 35.4909 19.1953 36.7677 19.2767 36.7838L20.4242 36.9535L19.8789 37.9636C19.708 38.2788 15.7366 45.3495 5.43351 45.0343V45.0505Z" fill="#567490"/>
<path d="M24.9449 27.992C14.3266 27.992 11.0394 19.6732 11 19.577L12.4741 19C12.6396 19.4328 16.723 29.5868 31.5744 25.3874L32 26.9341C29.3514 27.6874 27.0102 28 24.9449 28V27.992Z" fill="#567490"/>
<path d="M35.5001 29C36.3285 29 37 28.5523 37 28C37 27.4477 36.3285 27 35.5001 27C34.6717 27 34 27.4477 34 28C34 28.5523 34.6717 29 35.5001 29Z" fill="#567490"/>
<path d="M51.4578 75.9919L51.6611 74.9818C51.7343 74.5939 53.402 65.3333 41.1346 62.7717C33.9434 61.4545 32.6011 53.8424 32.3896 52.1455C31.8934 51.7172 30.5186 50.6828 29.1438 50.9091C28.6963 50.9818 28.2814 50.7636 28.0943 50.3677C27.9072 49.9798 28.0049 49.5273 28.3303 49.2364C28.9892 48.6545 29.9654 47.6687 30.8602 46.303C31.7795 44.897 33.0567 44.0727 34.4559 43.9919C35.3914 43.9354 36.7824 44.1939 38.2467 45.6404C40.256 43.9434 46.9023 37.7616 47.4636 29.7212C47.7646 22.4 47.1789 21.1717 47.1545 21.1232C47.1545 21.1232 47.1951 21.204 47.309 21.2929L48.2852 20C48.2852 20 48.334 20.0323 48.3665 20.0646C49.2126 20.7273 57.7542 27.7172 59.4463 37.9879C61.0245 36.0323 63.6927 31.7253 63.6195 25.0505L63.5869 22.3434L65.1081 24.5899C65.222 24.7515 76.0415 41.0586 65.1326 52.3151C60.9838 56.0242 54.8175 57.6242 52.1981 58.1657C53.6623 60.0646 57.7217 64.0485 65.6369 63.3697L66.7921 63.2727L66.4993 64.3798C66.4667 64.4929 63.4324 75.4667 52.499 75.9515L51.4659 76L51.4578 75.9919ZM30.5104 49.3657C32.3163 49.7616 33.6749 51.1192 33.7482 51.1919L33.9597 51.402L33.984 51.701C34.0084 52.0404 34.6267 59.9354 41.4519 61.1879C52.8163 63.5636 53.5078 71.4182 53.3614 74.2626C60.5689 73.4788 63.5951 67.5475 64.555 65.0505C64.3191 65.0505 64.0913 65.0586 63.8635 65.0586C54.0691 65.0586 50.2783 58.2788 50.1156 57.9717L49.5705 56.9616L50.7175 56.7919C50.7989 56.7758 59.1371 55.499 64.0099 51.1515C71.5917 43.3212 67.5324 32.6061 65.1244 27.8869C64.2947 36.1535 59.6089 40.2424 59.3893 40.4283L58.1772 41.4626L58.0471 39.8869C57.3963 31.9354 51.9622 25.6727 49.0824 22.8768C49.1963 24.3151 49.2289 26.4889 49.0906 29.8101C48.3747 40.0162 39.052 47.0949 38.6534 47.3939L38.0352 47.8545L37.5389 47.2646C36.5709 46.1172 35.5297 45.5515 34.5535 45.6C33.6831 45.6566 32.8533 46.2141 32.2188 47.1838C31.6493 48.0485 31.0554 48.7838 30.5104 49.3657Z" fill="#567490"/>
<path d="M45.0552 49C42.9899 49 40.6486 48.6874 38 47.9341L38.4257 46.3874C53.2771 50.5868 57.3604 40.4328 57.5259 40L59 40.577C58.9606 40.6732 55.6735 48.992 45.0552 48.992V49Z" fill="#567490"/>
<path d="M34.5 50C35.3284 50 36 49.3284 36 48.5C36 47.6716 35.3284 47 34.5 47C33.6716 47 33 47.6716 33 48.5C33 49.3284 33.6716 50 34.5 50Z" fill="#567490"/>
</svg>
