<svg width="76" height="76" viewBox="0 0 76 76" fill="none" xmlns="http://www.w3.org/2000/svg">
<path d="M75.7406 75.9995H33.1035V43.5898H52.7127V51.6242H75.7335V75.9995H75.7406ZM34.8595 74.2507H73.999V53.3729H50.9783V45.3386H34.8595V74.2507Z" fill="#567490"/>
<path d="M46.1285 69.0116H39.2266V59.2285H46.1285V69.0116ZM40.9753 67.2628H44.3797V60.9701H40.9753V67.2628Z" fill="#567490"/>
<path d="M46.1285 53.3729H39.2266V43.5898H46.1285V53.3729ZM40.9753 51.6242H44.3797V45.3315H40.9753V51.6242Z" fill="#567490"/>
<path d="M57.8746 69.0116H50.9727V59.2285H57.8746V69.0116ZM52.7214 67.2628H56.1258V60.9701H52.7214V67.2628Z" fill="#567490"/>
<path d="M69.6207 69.0116H62.7188V59.2285H69.6207V69.0116ZM64.4675 67.2628H67.8719V60.9701H64.4675V67.2628Z" fill="#567490"/>
<path d="M39.2266 36.6016H40.9753V44.4639H39.2266V36.6016Z" fill="#567490"/>
<path d="M44.3789 39.2266H46.1277V44.4657H44.3789V39.2266Z" fill="#567490"/>
<path d="M56.127 47.7832H57.8757V52.4992H56.127V47.7832Z" fill="#567490"/>
<path d="M62.7266 45.1602H64.4753V52.4993H62.7266V45.1602Z" fill="#567490"/>
<path d="M67.8809 47.7832H69.6296V52.4992H67.8809V47.7832Z" fill="#567490"/>
<path d="M24.032 11.5319H13.1738L20.0041 0.602037C20.2406 0.229347 20.642 0 21.0863 0H24.032V11.5319ZM16.3274 9.7831H22.2832V1.74877H21.3515L16.3274 9.7831Z" fill="#567490"/>
<path d="M24.0301 70.4956H13.8672V15.8105H24.0301V70.4956ZM15.616 68.7468H22.2814V17.5593H15.616V68.7468Z" fill="#567490"/>
<path d="M29.263 75.9999H8.65039V71.3556C8.65039 69.9221 9.81863 68.7539 11.2521 68.7539H26.6685C28.1019 68.7539 29.2702 69.9221 29.2702 71.3556V75.9999H29.263ZM10.3848 74.2511H27.507V71.3484C27.507 70.8754 27.12 70.4955 26.6542 70.4955H11.2449C10.7719 70.4955 10.392 70.8825 10.392 71.3484V74.2511H10.3848Z" fill="#567490"/>
<path d="M73.2892 17.5595H45.7532V15.8107H71.5404V15.137L66.8746 11.532H11.265V15.8107H33.9776V17.5595H9.52344V9.7832H67.4767L72.7947 13.8971C73.11 14.1408 73.2892 14.5063 73.2892 14.9077V17.5523V17.5595Z" fill="#567490"/>
<path d="M38.1719 15.8105H41.6694V17.5593H38.1719V15.8105Z" fill="#567490"/>
<path d="M10.0483 25.7731H1.22558C0.551867 25.7731 0 25.2213 0 24.5476V8.38573C0 7.71202 0.551867 7.16016 1.22558 7.16016H10.0554C10.7292 7.16016 11.281 7.71202 11.281 8.38573V24.5476C11.2739 25.2213 10.722 25.7731 10.0483 25.7731ZM1.74877 24.0244H9.52508V8.90893H1.74877V24.0244Z" fill="#567490"/>
<path d="M22.9629 1.72726L23.3427 0.0214844L67.3703 9.80458L66.9904 11.5104L22.9629 1.72726Z" fill="#567490"/>
<path d="M14.0039 69.1485L22.4109 55.8965L23.8873 56.8354L15.4803 70.0874L14.0039 69.1485Z" fill="#567490"/>
<path d="M14.0039 56.8432L15.4803 55.9043L23.8873 69.1563L22.4109 70.0952L14.0039 56.8432Z" fill="#567490"/>
<path d="M14.0039 55.9531L22.4109 42.7012L23.8873 43.6401L15.4803 56.892L14.0039 55.9531Z" fill="#567490"/>
<path d="M14.0039 43.6401L15.4803 42.7012L23.8873 55.946L22.4109 56.8849L14.0039 43.6401Z" fill="#567490"/>
<path d="M14.0117 42.666L22.4187 29.4141L23.8952 30.353L15.4881 43.6049L14.0117 42.666Z" fill="#567490"/>
<path d="M14.0039 30.353L15.4803 29.4141L23.8873 42.666L22.4109 43.6049L14.0039 30.353Z" fill="#567490"/>
<path d="M14.0117 29.4707L22.4187 16.2188L23.8952 17.1576L15.4881 30.4096L14.0117 29.4707Z" fill="#567490"/>
<path d="M14.0039 17.1518L15.4803 16.2129L23.8873 29.4649L22.4109 30.4038L14.0039 17.1518Z" fill="#567490"/>
<path d="M72.7671 39.1314H61.3213C60.6476 39.1314 60.0957 38.5796 60.0957 37.9059V33.0107C60.0957 32.337 60.6476 31.7852 61.3213 31.7852H72.7743C73.448 31.7852 73.9999 32.337 73.9999 33.0107V37.9059C73.9927 38.5796 73.4409 39.1314 72.7671 39.1314ZM61.8445 37.3827H72.2368V33.5411H61.8445V37.3827Z" fill="#567490"/>
<path d="M71.792 33.5431H62.3027L67.0474 27.6016L71.792 33.5431ZM65.9365 31.7943H68.1654L67.0474 30.3967L65.9365 31.7943Z" fill="#567490"/>
<path d="M66.1738 16.6855H67.9226V29.0058H66.1738V16.6855Z" fill="#567490"/>
</svg>
