<svg width="119" height="44" viewBox="0 0 119 44" fill="none" xmlns="http://www.w3.org/2000/svg">
<path d="M116.919 32.3835C116.557 33.8051 115.266 34.8178 113.816 34.8178L110.583 34.7621C110.555 30.6739 107.219 27.3662 103.131 27.3662C99.0429 27.3662 95.8839 30.5252 95.7074 34.5112L32.8888 33.452C32.2384 29.9864 29.2373 27.3755 25.5951 27.3755C21.9529 27.3755 19.0726 29.8563 18.3293 33.2011L8.73136 33.0432C-4.74104 32.1698 3.47248 15.8171 3.54681 15.5476C4.13216 13.55 5.95326 12.1563 8.03451 12.0355L12.3271 11.7754C23.8576 11.0785 27.9644 -3.53671 67.7405 3.49681C72.4977 4.88122 77.803 7.79869 83.4428 11.701C85.1431 12.881 87.1222 13.5686 89.1756 13.8752C96.3949 14.953 103.531 16.6347 110.555 17.759C113.268 18.1957 116.343 20.5557 117.142 23.1851C118.127 26.4185 117.663 29.4475 116.929 32.3928L116.919 32.3835Z" stroke="#0E3860" stroke-width="1.85826" stroke-linecap="round" stroke-linejoin="round"/>
<path d="M110.575 34.7611V34.8169C110.575 38.9329 107.239 42.2406 103.123 42.2406C99.0069 42.2406 95.6992 38.9329 95.6992 34.8169V34.5103C95.8758 30.5243 99.1184 27.3652 103.123 27.3652C107.128 27.3652 110.547 30.6729 110.575 34.7611Z" stroke="#0E3860" stroke-width="1.85826" stroke-linecap="round" stroke-linejoin="round"/>
<path d="M33.018 34.8169C33.018 38.9329 29.7103 42.2406 25.5942 42.2406C21.4782 42.2406 18.1426 38.9329 18.1426 34.8169C18.1426 34.2501 18.1983 33.7019 18.3191 33.1909C19.0717 29.8553 22.0449 27.3652 25.5849 27.3652C29.1249 27.3652 32.2375 29.9761 32.8786 33.4417C32.9529 33.8784 33.0087 34.343 33.0087 34.8169H33.018Z" stroke="#0E3860" stroke-width="1.85826" stroke-linecap="round" stroke-linejoin="round"/>
<path d="M12.3184 11.7656C13.5727 17.7771 86.6675 19.3938 86.6675 13.2615" stroke="#0E3860" stroke-width="1.85826" stroke-linecap="round" stroke-linejoin="round"/>
<path d="M50.7285 17.052V1.92578" stroke="#0E3860" stroke-width="1.85826" stroke-linecap="round" stroke-linejoin="round"/>
</svg>
