<svg width="119" height="43" viewBox="0 0 119 43" fill="none" xmlns="http://www.w3.org/2000/svg">
<path d="M100.935 32.0081H112.066C113.171 32.0081 114.165 31.3391 114.565 30.3263L117.185 23.7295L117.668 22.503C118.226 21.1094 117.52 19.5019 116.107 18.9816C92.7676 10.415 90.5748 15.2372 67.4116 15.2372C46.4968 15.4788 35.6632 11.6322 5.75446 16.7332C4.19352 16.984 2.9206 18.1919 2.54894 19.7528C2.4839 20.0037 1.01589 25.978 1.1088 25.597C0.421244 28.4774 3.09716 31.497 6.18188 32.0081H14.2188" stroke="#0E3860" stroke-width="1.85826" stroke-linecap="round" stroke-linejoin="round"/>
<path d="M30.6387 32.0078H43.024H50.2619H57.5277H84.519" stroke="#0E3860" stroke-width="1.85826" stroke-linecap="round" stroke-linejoin="round"/>
<path d="M100.707 34.3638C101.83 29.958 99.1677 25.4767 94.7619 24.3545C90.3562 23.2323 85.8748 25.8941 84.7526 30.2999C83.6304 34.7057 86.2923 39.1871 90.6981 40.3093C95.1039 41.4315 99.5852 38.7696 100.707 34.3638Z" stroke="#0E3860" stroke-width="1.85826" stroke-linecap="round" stroke-linejoin="round"/>
<path d="M30.4425 34.2017C31.483 29.7759 28.7387 25.3446 24.3129 24.3041C19.8871 23.2636 15.4558 26.0079 14.4153 30.4337C13.3747 34.8595 16.1191 39.2908 20.5449 40.3313C24.9707 41.3718 29.402 38.6275 30.4425 34.2017Z" stroke="#0E3860" stroke-width="1.85826" stroke-linecap="round" stroke-linejoin="round"/>
<path d="M46.8574 14.4935L59.0291 1.58789C59.0291 1.58789 64.3344 12.914 67.9023 14.4935" stroke="#0E3860" stroke-width="1.85826" stroke-linecap="round" stroke-linejoin="round"/>
<path d="M79.9844 14.9669L82.6789 8.04492" stroke="#0E3860" stroke-width="1.85826" stroke-linecap="round" stroke-linejoin="round"/>
<path d="M86.7383 14.1305L89.3212 7.23633" stroke="#0E3860" stroke-width="1.85826" stroke-linecap="round" stroke-linejoin="round"/>
<path d="M2.03711 21.7969L7.89993 22.1592" stroke="#0E3860" stroke-width="1.85826" stroke-linecap="round" stroke-linejoin="round"/>
<path d="M117.184 23.7207H110.336" stroke="#0E3860" stroke-width="1.85826" stroke-linecap="round" stroke-linejoin="round"/>
</svg>
