<svg width="58" height="85" viewBox="0 0 58 85" fill="none" xmlns="http://www.w3.org/2000/svg">
<path d="M40.3452 75.8927H1.31503C0.589135 75.8927 0 75.2983 0 74.5659V1.3268C0 0.594405 0.589135 0 1.31503 0H42.1968C42.9227 0 43.5118 0.594405 43.5118 1.3268V49.8557H40.8818V2.65359H2.63007V73.2391H40.3452V75.8927Z" fill="#567490"/>
<path d="M17.9376 8.41992H7.96289V18.3944H17.9376V8.41992Z" fill="#567490"/>
<path d="M35.3162 8.41992H25.3418V18.3944H35.3162V8.41992Z" fill="#567490"/>
<path d="M17.9376 26.1055H7.96289V36.08H17.9376V26.1055Z" fill="#567490"/>
<path d="M35.3162 26.1055H25.3418V36.08H35.3162V26.1055Z" fill="#567490"/>
<path d="M17.9376 43.7793H7.96289V53.7538H17.9376V43.7793Z" fill="#567490"/>
<path d="M35.3162 43.7793H25.3418V53.7538H35.3162V43.7793Z" fill="#567490"/>
<path d="M27.3206 57.6777H15.1777V73.8682H27.3206V57.6777Z" fill="#567490"/>
<path d="M44.9713 85.0001L34.2989 66.5108C32.067 62.65 32.067 58.0383 34.2989 54.1881C36.5307 50.3379 40.5182 48.0215 44.9713 48.0215C49.4244 48.0215 53.4227 50.3274 55.644 54.1881C57.8758 58.0489 57.8758 62.65 55.644 66.5108L44.9713 85.0001ZM44.9713 50.6658C41.4702 50.6658 38.3393 52.4746 36.5835 55.5103C34.8382 58.546 34.8382 62.1635 36.5835 65.1886L44.9713 79.7114L53.3594 65.1886C55.1046 62.1529 55.1046 58.5354 53.3594 55.5103C51.6035 52.4746 48.4724 50.6658 44.9713 50.6658Z" fill="#567490"/>
<path d="M44.9711 67.167C41.2267 67.167 38.1699 64.1207 38.1699 60.3657C38.1699 56.6107 41.2161 53.5645 44.9711 53.5645C48.7261 53.5645 51.7726 56.6107 51.7726 60.3657C51.7726 64.1207 48.7261 67.167 44.9711 67.167ZM44.9711 56.2088C42.6758 56.2088 40.8143 58.0704 40.8143 60.3657C40.8143 62.661 42.6758 64.5226 44.9711 64.5226C47.2664 64.5226 49.1282 62.661 49.1282 60.3657C49.1282 58.0704 47.2664 56.2088 44.9711 56.2088Z" fill="#567490"/>
</svg>
