<svg width="81" height="77" viewBox="0 0 81 77" fill="none" xmlns="http://www.w3.org/2000/svg">
<path d="M35.2279 38.0053C9.24157 18.7629 29.6276 18.0459 33.2129 1C47.3633 9.87692 47.3361 23.5735 38.1052 36.1719C37.9055 14.6603 37.733 26.2602 35.2279 38.0053ZM38.8948 33.6758C51.2753 15.6043 36.6438 4.30388 33.7484 2.31611C30.4717 15.0234 11.6741 19.2531 34.6924 36.5984C37.134 25.1347 38.7315 9.65908 38.8948 33.6758ZM16.2305 62.9297C14.034 56.213 16.5755 52.2011 23.4011 51.0847C22.0305 52.7911 17.1473 57.5563 21.3861 52.2919C15.332 53.9166 16.2306 59.762 16.6753 61.5863C21.1319 58.4005 24.2089 60.4245 23.7641 52.7004C13.7708 60.1613 19.7977 54.67 24.4358 51.1846C25.5432 61.1416 22.1303 58.5003 16.2305 62.9206V62.9297ZM7.52608 23.8821C13.8343 19.5163 18.9081 20.8052 22.2483 27.6126C20.0972 26.7322 13.8797 23.4828 20.5238 26.0424C16.8024 19.8703 10.7029 22.8746 8.95111 23.9184C13.8616 27.6671 12.6634 31.6426 20.8324 28.602C10.8844 21.2771 17.5285 25.1438 22.4662 28.8016C12.5545 33.1221 13.9614 28.5929 7.53516 23.8821H7.52608ZM47.0819 50.9486C47.8988 63.0658 52.2738 59.2627 59.7983 63.2837C60.0978 60.7785 60.6152 50.8215 50.1589 49.9411C57.166 56.6577 50.767 51.593 48.0168 49.0425C57.8286 49.2603 62.0674 54.9423 60.4245 64.5544C51.2118 59.4624 46.6463 63.792 46.2197 49.5508C53.7986 53.6352 60.2521 58.1826 47.091 50.9486H47.0819ZM57.6562 4.05882C61.4593 12.8994 58.7091 19.5254 49.1786 22.0214C51.3026 18.8355 55.8681 13.199 51.0575 20.6509C61.0236 17.3742 58.2099 7.79838 57.3476 5.43846C50.9213 11.1204 45.8475 8.56081 47.8353 20.3786C59.1992 10.0766 53.7351 16.1216 47.3179 21.9488C44.3771 8.07975 49.4963 11.4926 57.6562 4.05882ZM35.6454 40.5649C19.843 51.2481 30.5625 60.9328 32.6229 74.7111C35.6636 72.8776 50.9032 62.4849 39.6573 43.7236C37.9509 67.3137 37.379 52.0922 35.6454 40.5649ZM36.2626 39.1853C38.2232 52.3917 37.5515 63.3472 39.0128 41.1821C47.445 54.2978 46.6735 68.0217 31.9966 76C29.7002 60.3701 18.3636 50.8396 36.2626 39.1853ZM1 46.374C6.85441 33.0586 17.5648 28.7926 30.1722 36.7346C11.783 39.8025 21.5494 38.4138 32.3506 39.3305C19.8884 57.3385 17.5013 47.7082 1 46.374ZM30.862 40.0203C20.7689 39.1853 8.07975 39.7662 27.9031 36.2898C12.137 27.1406 3.69575 42.5709 2.20719 45.6569C16.0762 46.8822 19.0352 55.9316 30.853 40.0203H30.862ZM41.645 40.6012C56.5125 58.7363 69.6555 30.626 77.5158 23.9003C60.5516 22.3754 54.1889 17.9006 42.7433 35.3368C63.9644 25.2618 50.5764 33.5578 41.645 40.6012ZM40.5105 40.4651C51.4024 31.7969 59.9616 27.8032 40.5105 37.3246C53.6716 16.5482 58.2008 21.5404 79.549 23.2558C69.7008 31.452 55.8409 60.5062 40.5014 40.4742L40.5105 40.4651Z" fill="#567490" stroke="#567490" stroke-width="0.5" stroke-miterlimit="10"/>
</svg>
