<svg width="55" height="76" viewBox="0 0 55 76" fill="none" xmlns="http://www.w3.org/2000/svg">
<path d="M48.402 49.4425L47.8024 48.9745C47.6635 48.8648 47.5245 48.7624 47.3929 48.6528C46.808 48.1775 46.1061 47.79 45.1628 47.439C44.885 47.3366 44.4389 47.0588 44.4974 46.3495C44.6583 44.4484 44.8045 42.54 44.9581 40.6389C45.0093 40.0101 44.9215 39.5055 44.6948 39.0595C44.3804 38.4599 44.7167 38.0212 44.8264 37.875C45.4406 37.0634 45.8282 36.1494 46.0256 35.0745L46.2596 33.7949L47.2321 34.665C48.2704 35.5863 48.9796 36.6758 49.4037 37.9993C49.8205 39.3008 49.7547 40.5658 49.645 41.86C49.528 43.2639 49.4183 44.6678 49.3159 46.0717L49.1478 48.2433C49.1478 48.353 49.1551 48.6966 48.8626 48.9891L48.402 49.4498V49.4425ZM45.9818 46.1813C46.6691 46.4592 47.254 46.759 47.7658 47.1026L47.8536 45.9547C47.9632 44.5508 48.0657 43.1396 48.1827 41.7357C48.2777 40.595 48.3362 39.4836 47.9999 38.438C47.7878 37.7872 47.4953 37.2023 47.1004 36.6758C46.8591 37.3705 46.5229 38.0066 46.0915 38.6062C46.362 39.235 46.4716 39.9443 46.4131 40.7193C46.2669 42.5546 46.128 44.368 45.9744 46.174L45.9818 46.1813Z" fill="#567490"/>
<path d="M15.4391 52.2291C15.015 52.2291 14.5983 52.0975 14.2546 51.8489C13.7866 51.5125 13.4942 50.9788 13.443 50.3865C13.3991 49.8966 13.5454 49.4213 13.8963 48.9314C15.4684 46.7525 17.5084 44.9026 19.9433 43.4329L20.148 43.3086C20.2357 43.2574 20.3308 43.2062 20.4185 43.1477C20.594 43.0307 20.7183 42.826 20.594 42.6212C20.4843 42.4384 20.2723 42.3946 20.0529 42.5189C18.0275 43.6742 16.2581 45.078 14.781 46.6867C13.9329 47.608 13.1725 48.617 12.5217 49.6772C11.966 50.5766 11.2129 51.1616 10.3427 51.3517C9.46532 51.5491 8.53666 51.3444 7.6446 50.7594C6.07253 49.7284 4.71984 48.3245 3.63768 46.5916C3.17702 45.8458 3.03075 44.983 3.23548 44.1567C3.44753 43.2866 4.01059 42.5408 4.82952 42.0582C7.01579 40.7567 9.4507 39.6818 12.2731 38.7825C13.9256 38.256 15.6731 37.8027 17.4646 37.4517C17.9398 37.3567 17.9471 37.1373 17.9544 37.0422C17.9544 36.9033 17.896 36.8229 17.8375 36.779C17.7424 36.6986 17.5962 36.6693 17.4426 36.6986C16.6822 36.8521 15.7901 37.0495 14.8981 37.2689C11.0374 38.2414 7.71044 39.5429 4.7491 41.232C3.97404 41.6707 3.08924 41.7219 2.31417 41.3782C1.52449 41.0272 0.954159 40.3107 0.764049 39.4259C0.0913511 36.3622 -0.135276 33.2181 0.0767701 29.7961C0.0987058 29.4013 0.120631 29.043 0.157191 28.692C0.244934 27.8658 0.669008 27.1419 1.32708 26.7032C1.97784 26.2645 2.80407 26.1475 3.59376 26.3741C5.57529 26.9518 7.60801 27.3832 9.6261 27.6537C12.3023 28.0193 15.1101 28.1802 18.1884 28.1363H18.2981C18.4005 28.1363 18.5102 28.1363 18.5687 28.1217C18.7588 28.0778 18.8685 27.9169 18.8465 27.7049C18.8246 27.4344 18.576 27.3978 18.4663 27.3978C18.0568 27.3905 17.6473 27.3905 17.2452 27.3905C16.9161 27.3905 16.5871 27.3905 16.2581 27.3905C12.4632 27.3393 9.07772 26.9591 5.88972 26.2133C4.80024 25.9573 3.82047 25.6722 2.89916 25.3431C1.55377 24.8532 0.873724 23.5956 1.21738 22.2063C2.01439 18.9891 3.12583 15.9473 4.53703 13.1615C5.05618 12.1378 5.91166 11.4797 6.89877 11.3481C7.88588 11.2238 8.8803 11.6479 9.64074 12.5107C12.9457 16.2764 16.865 19.0037 21.296 20.6343C21.5081 20.7147 21.7128 20.7074 21.8298 20.6123C21.9102 20.5465 21.9468 20.4442 21.9321 20.2979C21.9248 20.1956 21.9102 20.0712 21.6104 19.9616C20.1992 19.457 18.81 18.8136 17.4792 18.0458C14.2546 16.1667 11.4029 13.6368 8.99729 10.5292C8.01018 9.24959 8.07605 7.50204 9.15822 6.27364C10.7083 4.51146 12.3243 3.11488 14.0938 2.01078C15.0955 1.38927 16.2434 1.25765 17.2452 1.64518C18.2396 2.03272 18.9781 2.89552 19.2852 4.00693C20.0822 6.93171 21.0912 9.43239 22.3708 11.6552C23.9721 14.4484 25.8733 16.6127 28.1766 18.2871C28.3886 18.4407 28.4763 18.4553 28.5202 18.448C28.7469 18.4187 28.8127 18.3383 28.8712 18.1848C28.915 18.0532 28.8712 17.8923 28.7834 17.8265C24.8496 14.9748 22.1442 10.7997 20.265 4.70157C20.148 4.32135 20.053 3.94113 19.9506 3.5536C19.5412 1.96691 20.1772 0.72388 21.625 0.15355L21.8005 0L22.9777 0.0219349L23.2629 0.0950531C23.4895 0.153549 23.7162 0.212044 23.9429 0.277851C26.5679 1.06754 28.7103 2.72004 30.4797 5.3304C31.9641 7.52398 33.0097 10.1051 33.6677 13.22C34.4209 16.8101 34.5744 20.5027 34.1211 24.5242C33.4264 30.7686 31.5327 36.5085 28.4909 41.5683C26.4655 44.9464 24.1623 47.5568 21.4495 49.531C19.6215 50.8691 17.8082 51.7246 15.8998 52.1633C15.7462 52.1999 15.5854 52.2145 15.4318 52.2145L15.4391 52.2291ZM20.3016 40.9907C20.9158 40.9907 21.5007 41.2978 21.8444 41.8681C22.3709 42.7309 22.093 43.8131 21.2083 44.3834C21.0986 44.4492 20.9889 44.515 20.8792 44.5808L20.6964 44.6905C18.4224 46.0578 16.5359 47.7761 15.0735 49.7942C14.8981 50.0355 14.8834 50.1672 14.8907 50.2622C14.9054 50.4304 14.9857 50.5766 15.1101 50.6717C15.2417 50.7667 15.4025 50.796 15.578 50.7594C17.289 50.3719 18.9269 49.5895 20.594 48.3757C23.1385 46.5112 25.3176 44.0471 27.2406 40.8371C30.1727 35.9528 31.9933 30.4176 32.666 24.3853C33.0974 20.5246 32.9512 16.9783 32.2346 13.549C31.6204 10.6169 30.648 8.2113 29.2733 6.17858C27.694 3.85338 25.8147 2.391 23.5261 1.70368C23.3214 1.64519 23.1166 1.58669 22.9046 1.5355L22.6998 1.48432H22.3051C22.3051 1.48432 22.2684 1.49894 22.2538 1.50626C21.4203 1.79873 21.1351 2.32519 21.3471 3.15875C21.4568 3.57553 21.5446 3.94113 21.6543 4.2921C23.4603 10.1563 25.9172 13.9731 29.6316 16.6639C30.2531 17.1172 30.5017 17.9508 30.2385 18.6893C29.9899 19.3985 29.4342 19.8373 28.6737 19.925C28.0741 19.9981 27.6062 19.713 27.3064 19.4936C24.835 17.7022 22.7949 15.3843 21.0912 12.4083C19.7532 10.0758 18.6929 7.45817 17.8593 4.41641C17.6765 3.74371 17.2598 3.25381 16.6968 3.02714C16.1191 2.80047 15.461 2.88821 14.8468 3.26843C13.2016 4.2921 11.6954 5.60094 10.2404 7.26075C9.61886 7.97 9.58229 8.92787 10.138 9.65906C12.4193 12.6204 15.1321 15.026 18.1958 16.8101C19.4461 17.534 20.7476 18.1409 22.0783 18.6162C22.8315 18.8867 23.2921 19.4351 23.3652 20.1736C23.4311 20.8244 23.1971 21.4166 22.7072 21.7969C22.188 22.199 21.4642 22.2941 20.7696 22.0382C16.1119 20.3272 11.9879 17.4609 8.52209 13.5051C8.08337 13.0079 7.56414 12.7666 7.06693 12.8251C6.56972 12.8909 6.13104 13.2492 5.83126 13.8415C4.47124 16.525 3.39638 19.4644 2.62863 22.5792C2.46776 23.2446 2.74565 23.7565 3.3891 23.9904C4.25922 24.3049 5.18052 24.5754 6.21881 24.8094C9.29713 25.5259 12.5875 25.8989 16.2727 25.9427C16.5944 25.9427 16.9161 25.9427 17.2452 25.9427C17.6619 25.9427 18.0787 25.9427 18.5028 25.95C19.4607 25.972 20.2212 26.6593 20.3089 27.5879C20.3967 28.5311 19.797 29.3647 18.8904 29.5621C18.671 29.6133 18.4736 29.606 18.2981 29.6133H18.2031C15.0516 29.6499 12.178 29.489 9.42876 29.1161C7.33755 28.8309 5.23168 28.3849 3.18434 27.7926C2.80412 27.683 2.43849 27.7341 2.14601 27.9316C1.84623 28.1363 1.65613 28.4653 1.61226 28.8602C1.5757 29.1892 1.55378 29.5256 1.53916 29.8546C1.33442 33.1742 1.5538 36.1941 2.19725 39.1188C2.2923 39.5502 2.55552 39.8866 2.9138 40.0474C3.26478 40.201 3.66695 40.1717 4.03255 39.967C7.11818 38.2121 10.5548 36.8668 14.5471 35.8577C15.4684 35.6237 16.3824 35.4336 17.1574 35.2728C17.7497 35.1484 18.3493 35.2947 18.788 35.6676C19.2121 36.0259 19.4387 36.545 19.4241 37.1007C19.3949 38.0147 18.7588 38.702 17.7571 38.8995C16.0168 39.2431 14.3278 39.6745 12.7264 40.1864C10.0137 41.0565 7.67389 42.0875 5.58267 43.3305C5.1074 43.6157 4.77836 44.0324 4.66136 44.515C4.55169 44.9611 4.63207 45.4144 4.88799 45.8312C5.85316 47.3886 7.05232 48.639 8.44889 49.5456C9.0046 49.9039 9.54571 50.0429 10.0283 49.9332C10.5036 49.8235 10.9423 49.4725 11.2786 48.9168C11.9806 47.7762 12.7995 46.694 13.7135 45.6996C15.2929 43.9813 17.1793 42.4896 19.3364 41.2539C19.6508 41.0711 19.9799 40.9907 20.3089 40.9907H20.3016Z" fill="#567490"/>
<path d="M41.7414 68.9305C41.6244 68.9305 41.5075 68.9159 41.3831 68.8793C34.6562 66.9489 27.9219 65.0186 21.1876 63.1029C20.822 63.0005 20.3906 62.73 20.3906 62.028C20.3906 61.1725 20.3906 60.317 20.3906 59.4542C20.3906 58.6426 20.3906 57.8236 20.3906 57.012C20.3906 56.2881 20.6684 55.6813 21.173 55.3083C21.6775 54.9281 22.3502 54.8331 23.0595 55.0305L40.0743 59.8856C40.3668 59.9661 40.652 60.0538 40.9445 60.1415C41.4417 60.2951 41.8584 60.222 42.2971 59.9002C44.1617 58.5549 46.0262 57.2168 47.8981 55.8787L50.2818 54.175C50.7571 53.824 51.3201 53.7728 51.8246 54.0434C52.1098 54.1896 52.5851 54.5625 52.5778 55.3742V58.8254L52.4972 58.84C52.4972 59.4981 52.4972 60.1562 52.4972 60.8142C52.4972 61.2383 52.3291 61.5747 51.9781 61.8233C48.7901 64.1046 45.6095 66.3932 42.4288 68.6819C42.2094 68.8427 41.9754 68.9232 41.7341 68.9232L41.7414 68.9305ZM21.8603 61.7721C28.4703 63.6513 35.073 65.5451 41.6756 67.4388C44.7978 65.1941 47.92 62.9493 51.0422 60.7119C51.0422 60.0904 51.0422 59.4688 51.0422 58.8473V57.3776H51.1226V55.3888L48.7535 57.0851C46.889 58.4232 45.0172 59.7613 43.16 61.0994C42.3484 61.6844 41.4635 61.8379 40.5276 61.5527C40.2498 61.465 39.9647 61.3846 39.6868 61.3041L22.6719 56.449C22.4087 56.3759 22.1966 56.3905 22.065 56.4856C21.9407 56.5806 21.8676 56.7707 21.8676 57.0267C21.8676 57.8383 21.8676 58.6499 21.8676 59.4615C21.8676 60.2366 21.8676 61.0043 21.8676 61.7794L21.8603 61.7721Z" fill="#567490"/>
<path d="M38.7273 56.8139H38.6762C36.351 56.7847 32.834 56.4337 29.2731 54.9567C28.0081 54.4302 27.0429 53.8526 26.2313 53.136C25.8657 52.8143 25.5805 52.478 25.3465 52.127C24.5568 50.8986 24.6885 49.5312 25.7048 48.4856C26.6261 47.5424 27.8034 47.0818 28.7247 46.782C30.6185 46.1751 32.6731 45.9045 35.1591 45.9338C38.8809 45.9703 42.1201 46.5845 45.0595 47.7983C46.361 48.3394 47.3481 48.9463 48.1597 49.6994C48.4742 49.9919 48.7228 50.2844 48.9202 50.5915C49.7245 51.8345 49.5928 53.2091 48.5619 54.2621C47.6479 55.198 46.5219 55.644 45.5421 55.9511C43.6556 56.5507 41.6814 56.792 38.7273 56.792V56.8139ZM38.6907 55.3515H38.7273C41.5132 55.3515 43.3631 55.1249 45.096 54.5765C45.9076 54.3206 46.829 53.9623 47.5163 53.253C48.072 52.6827 48.1305 52.0758 47.6918 51.3958C47.5528 51.1837 47.3847 50.9863 47.158 50.7743C46.478 50.1381 45.6371 49.6263 44.4965 49.151C41.7399 48.003 38.6761 47.4327 35.1445 47.3962C32.7974 47.3596 30.9109 47.6155 29.1634 48.1712C28.3591 48.4271 27.4377 48.7854 26.7504 49.4947C26.202 50.0577 26.1435 50.6573 26.5749 51.3227C26.7285 51.564 26.9332 51.7979 27.1964 52.0319C27.8837 52.6388 28.7173 53.136 29.8287 53.5967C33.1702 54.9786 36.4899 55.3077 38.6835 55.3369L38.6907 55.3515ZM37.5721 53.2091H37.5501C36.7897 53.1799 35.7952 53.0848 34.8666 52.6242C34.4572 52.4195 33.6163 52.01 33.7333 51.0229C33.8503 50.0431 34.7716 49.8237 35.1591 49.7287C36.6142 49.3777 38.0254 49.502 39.3635 50.1089C39.7437 50.2844 40.6357 50.6792 40.5407 51.6956C40.4529 52.6315 39.634 52.8728 39.2391 52.9971L39.1442 53.0263C38.6104 53.1872 38.0839 53.2165 37.5867 53.2238H37.5648L37.5721 53.2091ZM35.3054 51.1984C35.3639 51.2276 35.4297 51.2642 35.4736 51.2861C36.1975 51.6444 36.9432 51.7175 37.594 51.7468C38.0327 51.7468 38.391 51.7175 38.7127 51.6151L38.8224 51.5786C38.8663 51.564 38.9247 51.5493 38.9759 51.5274C38.9101 51.4908 38.8298 51.4543 38.7713 51.4324C37.733 50.9644 36.6361 50.8693 35.5101 51.1399C35.4589 51.1545 35.3712 51.1691 35.2981 51.1984H35.3054Z" fill="#567490"/>
<path d="M41.7478 75.9934C41.5723 75.9934 41.4407 75.9569 41.3749 75.9349C36.7245 74.5969 32.0668 73.2588 27.4164 71.9207L23.7019 70.8532C22.2468 70.4291 20.7918 70.0123 19.3294 69.6101C18.2619 69.3176 18.2107 68.5718 18.2912 68.1185V67.9138V67.6359C18.2985 66.8462 18.6348 66.1443 19.2052 65.7275C19.7755 65.3034 20.5286 65.1937 21.289 65.4131C25.8517 66.7438 30.407 68.0746 34.9696 69.4127L36.9731 69.9977C38.5525 70.4583 40.1246 70.919 41.6967 71.3942C44.7896 69.1568 47.8752 66.9413 50.9681 64.7257C51.5312 64.3163 52.2038 64.2066 52.7961 64.404C53.3518 64.5868 53.7687 65.0329 53.9515 65.6105C54.0831 66.0346 54.0611 66.4294 54.0392 66.7804C54.0392 66.8901 54.0246 66.9998 54.0246 67.1094C54.0246 67.3361 53.9441 67.6652 53.5419 67.9064L52.1088 68.9228C48.8843 71.2041 45.6524 73.4928 42.4352 75.7814C42.1939 75.9569 41.9525 76.0007 41.7624 76.0007L41.7478 75.9934ZM19.7535 68.2135C21.2086 68.6157 22.6563 69.0325 24.1041 69.4493L27.8185 70.5168C32.4397 71.8476 37.0609 73.171 41.682 74.5018C44.87 72.2351 48.058 69.9757 51.2533 67.7163L52.5622 66.7877C52.5622 66.7877 52.5622 66.7219 52.5622 66.6927C52.5768 66.4294 52.5914 66.2101 52.5329 66.0346C52.489 65.903 52.4159 65.8152 52.3135 65.7787C52.1673 65.7275 51.9772 65.7787 51.8017 65.903C48.7161 68.1185 45.6304 70.334 42.5448 72.5568C42.1353 72.8493 41.7258 72.9224 41.2579 72.7835C39.6931 72.3082 38.1211 71.8549 36.5417 71.3942L34.5382 70.8093C29.9829 69.4785 25.4203 68.1404 20.865 66.8097C20.5432 66.7146 20.2653 66.7512 20.0679 66.8974C19.8632 67.0509 19.7535 67.3142 19.7462 67.6505V68.0015L19.015 68.0088L19.7462 68.0307C19.7462 68.0746 19.7462 68.1331 19.7462 68.2062L19.7535 68.2135Z" fill="#567490"/>
<path d="M33.0538 38.0736C32.9441 38.0736 32.8125 38.059 32.6809 38.0152L31.9277 37.7739L32.2349 37.0427C33.9239 32.9845 34.9622 28.9045 35.4155 24.5758L35.591 22.916L36.9218 24.4296C37.1046 24.6416 37.2728 24.8317 37.4483 25.0219C38.9253 26.6524 40.6144 27.8516 42.6179 28.6851C44.402 29.4236 45.4841 30.6593 45.8277 32.3411C46.0398 33.3648 45.6742 34.8564 44.9357 35.9678C44.3142 36.9037 43.5026 37.496 42.5886 37.6788C41.7989 37.8324 41.0458 37.8104 40.4681 37.7665C38.7498 37.6422 37.3532 37.6203 36.0663 37.7007C34.9841 37.7665 34.1652 37.8689 33.4194 38.0371C33.339 38.059 33.2147 38.081 33.0684 38.081L33.0538 38.0736ZM36.6659 26.3307C36.1834 29.8039 35.3205 33.1235 34.0482 36.4212C34.6259 36.3334 35.2401 36.2749 35.9639 36.231C37.3166 36.1506 38.7791 36.1652 40.5632 36.2969C41.2797 36.348 41.8062 36.3261 42.2888 36.231C42.9542 36.0994 43.4222 35.5657 43.7 35.1489C44.2703 34.2861 44.497 33.1893 44.38 32.6263C44.1314 31.4271 43.371 30.5789 42.0402 30.0232C40.0075 29.175 38.2014 27.932 36.6586 26.3234L36.6659 26.3307Z" fill="#567490"/>
<path d="M37.3459 52.3102L37.0315 52.2517C36.8414 52.2225 36.4831 52.1713 36.2126 51.8422L36.0078 51.5936L36.0443 51.2353C36.0736 51.0087 36.1906 50.8186 36.3661 50.6943C36.7024 50.4676 37.09 50.4164 37.4702 50.5334C38.3111 50.7162 38.2525 51.4181 38.2379 51.4986C38.2233 51.6448 38.1137 52.1347 37.4775 52.2371L37.3385 52.3029L37.3459 52.3102ZM36.7975 51.3011C36.7975 51.3011 36.7975 51.3158 36.7975 51.3231C36.7609 51.6082 36.9364 51.8422 37.1119 51.93C37.1412 51.93 37.1704 51.9153 37.1997 51.8934L36.7975 51.2938V51.3011ZM37.2728 51.3889L37.4995 51.4328C37.5214 51.2646 37.4702 51.0818 37.3605 50.9355L37.2728 51.3889ZM36.7975 51.2938L37.1557 51.367L36.9656 50.9721C36.8852 51.0599 36.8267 51.1695 36.8048 51.2938H36.7975Z" fill="#567490"/>
</svg>
