<svg width="87" height="86" viewBox="0 0 87 86" fill="none" xmlns="http://www.w3.org/2000/svg">
<path fill-rule="evenodd" clip-rule="evenodd" d="M48.844 5.39205C49.517 5.55297 50.2192 5.30427 50.6288 4.74837C51.8064 3.16842 54.4689 0.315743 57.8263 1.1496C61.1983 1.99078 62.7051 5.00438 63.2611 6.53312C63.4585 7.0744 63.9194 7.4767 64.4826 7.61568C66.282 8.04723 70.0782 9.42237 70.4001 13.4381C70.7146 17.3294 67.0866 19.6701 65.1482 20.6356C64.5045 20.9574 64.1315 21.645 64.2046 22.3618C64.3729 23.8906 64.2266 26.6116 61.8274 29.0108C59.0552 31.783 54.9005 29.1278 53.1816 27.8039C52.7061 27.4381 52.0698 27.3284 51.5065 27.5479C49.6121 28.272 45.1209 29.3619 42.4511 24.8341C42.4072 24.761 42.3707 24.6805 42.3341 24.6074C40.9224 21.2939 41.844 18.7192 42.5462 17.4538C42.8534 16.8978 42.8388 16.2249 42.495 15.6909C41.471 14.0964 39.7447 10.6439 41.5953 7.5791C43.4459 4.5143 47.0081 4.95317 48.8367 5.38473L48.844 5.39205Z" stroke="#567490" stroke-width="1.82864" stroke-miterlimit="10"/>
<path d="M52.2019 27.4531C52.2019 27.4531 49.2615 40.5316 51.5436 52.681" stroke="#567490" stroke-width="1.82864" stroke-miterlimit="10"/>
<path d="M23.002 38.7384C22.8118 38.8627 22.7752 39.1334 22.9434 39.2943C24.7428 41.0571 33.8275 49.6078 39.6865 47.984C45.8599 46.2724 46.5329 40.7133 46.5914 40.1135C46.5914 40.0769 46.5914 40.0477 46.5914 40.0111C46.4012 39.0675 43.3364 25.5648 23.0093 38.7311L23.002 38.7384Z" stroke="#567490" stroke-width="1.82864" stroke-miterlimit="10"/>
<path d="M32.8184 38.3808C32.8184 38.3808 42.1956 37.4153 46.5844 40.1144C50.9731 42.8135 50.6805 43.6766 50.6805 43.6766" stroke="#567490" stroke-width="1.82864" stroke-miterlimit="10"/>
<path d="M76.1574 36.2297C76.3622 36.3175 76.428 36.5735 76.2964 36.749C74.8627 38.6874 67.5482 48.1524 61.7624 47.4941C55.662 46.8065 54.1845 41.6425 54.0455 41.0865C54.0382 41.05 54.0309 41.0207 54.0382 40.9915C54.0748 40.0698 54.9452 26.8305 76.1647 36.2297H76.1574Z" stroke="#567490" stroke-width="1.82864" stroke-miterlimit="10"/>
<path d="M66.8087 37.3789C66.8087 37.3789 57.7898 37.8763 54.0448 41.0947C50.2997 44.3131 50.702 45.0811 50.702 45.0811" stroke="#567490" stroke-width="1.82864" stroke-miterlimit="10"/>
<path d="M54.9371 21.4465C58.1568 21.4465 60.7668 18.8365 60.7668 15.6168C60.7668 12.3972 58.1568 9.78711 54.9371 9.78711C51.7175 9.78711 49.1074 12.3972 49.1074 15.6168C49.1074 18.8365 51.7175 21.4465 54.9371 21.4465Z" stroke="#567490" stroke-width="1.82864" stroke-miterlimit="10"/>
<path d="M32.8184 59.037C32.8184 59.037 56.5468 40.363 75.411 66.849" stroke="#567490" stroke-width="1.82864" stroke-miterlimit="10"/>
<path d="M55.6105 72.5184L76.9398 66.4693C76.9398 66.4693 83.8959 64.8016 85.1321 69.4975C86.3682 74.1935 77.13 76.7609 77.13 76.7609L52.2019 84.6679C52.2019 84.6679 47.0159 85.7139 42.3492 84.0974C37.6825 82.4809 22.834 77.6167 22.834 77.6167C22.834 77.6167 16.6239 74.5665 6.04705 77.3314C2.90179 78.253 1 78.9479 1 78.9479V59.7472L18.7232 57.1286C18.7232 57.1286 25.0137 55.6072 35.1151 60.5591C45.2165 65.5111 51.4412 68.4662 51.4412 68.4662C51.4412 68.4662 57.2197 71.0409 55.5959 75.6125C53.9794 80.1841 46.5917 77.4265 46.5917 77.4265L32.16 71.4212" stroke="#567490" stroke-width="1.82864" stroke-miterlimit="10"/>
</svg>
