<svg width="85" height="76" viewBox="0 0 85 76" fill="none" xmlns="http://www.w3.org/2000/svg">
<path d="M35.7836 76.0006C34.6526 76.0006 33.668 75.9673 32.69 75.8875C27.7068 75.5083 22.9432 74.1976 18.5255 72.0021C14.3873 69.9463 10.7746 67.2052 7.79405 63.8587C5.35237 61.1177 3.4364 58.0706 2.09248 54.7906C1.37395 53.0342 0.834936 51.2046 0.482323 49.3617C0.289384 48.3504 0.15642 47.3258 0.0832357 46.3279C0.0167049 45.3565 -0.00998538 44.6114 0.00332077 43.9062C0.02328 42.9481 0.0831707 42.0766 0.182967 41.2316C0.681948 36.9337 2.2122 32.8155 4.72041 28.9833C7.99373 23.9868 12.3515 20.1081 17.6606 17.4469C19.6898 16.4289 21.852 15.6572 24.0808 15.1449C24.8858 14.9586 25.7175 14.8122 26.6423 14.6925C27.9928 14.5129 29.4232 14.4463 30.8935 14.4929C31.6054 14.5195 32.3573 14.5794 33.1823 14.6858C34.9187 14.912 36.6485 15.3245 38.3251 15.9233C39.3364 16.2826 40.208 16.6551 41.0063 17.061C41.7115 17.4203 42.3168 17.8194 42.8624 18.2852C43.8138 19.1035 44.4792 20.0748 44.8452 21.1726C45.0381 21.7514 45.1445 22.3701 45.1712 23.0155C45.2111 23.8937 45.1111 24.8318 44.8716 25.8896C44.5922 27.1271 44.1732 28.3113 43.8072 29.3093L43.388 30.4403C43.1352 31.1189 42.8758 31.8042 42.6296 32.4895C42.3302 33.3145 42.104 34.0729 41.9377 34.8047C41.7581 35.6031 41.6848 36.3083 41.7181 36.9537C41.7647 37.8452 42.0575 38.5837 42.6163 39.2157C43.1885 39.8611 43.8804 40.4133 44.7319 40.8923C45.4372 41.2915 46.2488 41.6375 47.2002 41.9635C48.0452 42.2495 48.9767 42.5024 50.1476 42.7618C51.099 42.9747 52.0503 43.161 53.0017 43.3473L53.9865 43.5402C55.3371 43.8064 56.774 44.1057 58.1978 44.5382C59.2889 44.8642 60.1672 45.2102 60.9722 45.6293C61.8704 46.095 62.6088 46.6206 63.2275 47.2327C64.1922 48.1841 64.8442 49.355 65.1635 50.7189C65.3232 51.3909 65.4031 52.1161 65.4098 52.9477C65.4098 53.7993 65.3897 54.4912 65.3232 55.1232C65.1369 56.9861 64.678 58.7891 63.9661 60.479C63.1544 62.4017 62.0167 64.2113 60.5863 65.868C59.0295 67.6643 57.1334 69.281 54.9511 70.6715C52.7889 72.0487 50.3671 73.1864 47.7525 74.0579C46.1491 74.5901 44.4792 75.0226 42.7893 75.3353C41.8978 75.5016 41.013 75.6347 40.1614 75.7345C39.4694 75.8143 38.7708 75.8742 38.0855 75.9208C37.3404 75.9673 36.5155 75.9939 35.8235 76.0006H35.7836ZM29.9621 16.1495C28.891 16.1495 27.8465 16.216 26.8486 16.3491C25.9837 16.4622 25.1919 16.6019 24.4401 16.7749C22.3377 17.2539 20.3086 17.9858 18.3925 18.9438C13.3428 21.4653 9.21112 25.1578 6.09748 29.9014C3.72899 33.514 2.29197 37.3928 1.8196 41.4312C1.72645 42.2229 1.67323 43.0479 1.65327 43.9461C1.63996 44.5914 1.66 45.29 1.72653 46.2081C1.79306 47.1396 1.9195 48.0976 2.09914 49.049C2.43179 50.7854 2.94394 52.5086 3.6159 54.1586C4.88663 57.2655 6.703 60.153 9.01827 62.7477C11.8658 65.9345 15.3054 68.5492 19.2506 70.5118C23.4753 72.6142 28.0394 73.865 32.803 74.2242C33.7478 74.2974 34.6592 74.3307 35.7636 74.3307C36.4289 74.324 37.2273 74.2908 37.9458 74.2508C38.5978 74.2109 39.2698 74.151 39.9284 74.0779C40.7401 73.9847 41.5851 73.8583 42.4433 73.6986C44.06 73.3992 45.6567 72.9868 47.1869 72.4811C49.6685 71.6561 51.9705 70.5717 54.0196 69.2677C56.0954 67.9437 57.8186 66.48 59.289 64.7835C60.6129 63.26 61.6574 61.59 62.3959 59.8336C63.0479 58.2901 63.4605 56.6468 63.6334 54.9503C63.6933 54.3781 63.7132 53.7461 63.7132 52.9543C63.7132 52.2491 63.64 51.6437 63.5136 51.0981C63.2608 50.027 62.7751 49.1488 62.0233 48.4103C61.5243 47.918 60.9189 47.4922 60.1737 47.1063C59.4618 46.7404 58.6768 46.4277 57.6855 46.1283C56.3349 45.7225 54.9445 45.4297 53.6339 45.1702L52.6559 44.9773C51.6845 44.791 50.7197 44.5981 49.7551 44.3852C48.5309 44.1124 47.5396 43.8463 46.6481 43.5402C45.5903 43.1876 44.6854 42.7951 43.887 42.3427C42.8691 41.7705 42.0376 41.1052 41.3456 40.3201C40.5406 39.4087 40.1014 38.3109 40.0348 37.0468C39.9949 36.2485 40.0748 35.3969 40.2877 34.4455C40.4674 33.6405 40.7135 32.8221 41.0395 31.9306C41.2923 31.2454 41.5452 30.5601 41.8047 29.8682L42.2237 28.7371C42.5763 27.7924 42.9689 26.6747 43.2283 25.5304C43.4412 24.6056 43.5212 23.8338 43.4879 23.0953C43.4679 22.603 43.3814 22.1373 43.2417 21.6982C42.9755 20.8799 42.4899 20.1813 41.758 19.5559C41.3123 19.1767 40.8133 18.844 40.2278 18.5446C39.5026 18.1721 38.691 17.8327 37.7462 17.4934C36.1827 16.9346 34.5661 16.5487 32.9494 16.3358C32.1776 16.236 31.4791 16.1761 30.8204 16.1562C30.5277 16.1495 30.2416 16.1429 29.9555 16.1429L29.9621 16.1495Z" fill="#567490"/>
<path d="M34.2004 70.8314C34.5996 70.8181 35.0586 70.7848 35.5177 70.705C36.5157 70.5187 37.447 70.1528 38.2853 69.5739C39.0837 69.0217 39.7291 68.3365 40.1615 67.4583C40.6472 66.4869 40.7803 65.469 40.5008 64.4045C40.268 63.5196 39.7889 62.7945 39.1103 62.189C38.1057 61.2975 36.9081 60.8451 35.5908 60.6921C34.8523 60.6056 34.1138 60.6522 33.3886 60.7919C32.2908 61.0048 31.2929 61.4306 30.408 62.1158C29.7826 62.6015 29.2637 63.1803 28.8844 63.8789C28.585 64.4311 28.3922 65.0099 28.3457 65.6353C28.2525 66.773 28.5785 67.7909 29.2837 68.6824C29.7694 69.3012 30.3814 69.7669 31.08 70.1195C32.038 70.6052 33.0627 70.8181 34.2004 70.8314Z" fill="#567490"/>
<path d="M49.4288 65.6551C49.6151 65.6485 49.8081 65.6485 49.9944 65.6285C50.8193 65.5487 51.6109 65.3358 52.3627 64.9765C53.7 64.3378 54.7778 63.413 55.5363 62.129C56.0885 61.1976 56.3812 60.1996 56.3413 59.1152C56.3146 58.4232 56.1351 57.7779 55.7958 57.1791C55.237 56.1945 54.392 55.5491 53.3276 55.1832C52.2431 54.8106 51.1386 54.7973 50.0275 55.0501C48.7568 55.3362 47.6325 55.9283 46.6678 56.8065C45.7696 57.6249 45.1109 58.6095 44.765 59.7805C44.5321 60.5788 44.4789 61.3839 44.6652 62.1955C44.9646 63.4929 45.7296 64.4443 46.9006 65.063C47.6923 65.4755 48.5439 65.6551 49.4354 65.6485L49.4288 65.6551Z" fill="#567490"/>
<path d="M16.1904 47.0653C16.1904 46.0739 15.9974 45.1159 15.6115 44.1911C15.1458 43.0867 14.4606 42.1486 13.4892 41.4301C12.8173 40.9311 12.0655 40.5985 11.2339 40.492C10.0962 40.3523 9.05158 40.6317 8.13345 41.317C7.57459 41.7361 7.13548 42.2617 6.79618 42.8605C6.28389 43.7653 6.03109 44.75 5.97786 45.7812C5.9446 46.3933 6.00445 46.9987 6.12421 47.5975C6.35707 48.7219 6.81621 49.7531 7.53474 50.6513C8.13352 51.3898 8.85208 51.9752 9.73029 52.3545C11.4268 53.073 13.2498 52.7137 14.5471 51.4097C14.9396 51.0172 15.2523 50.5714 15.4985 50.0724C15.9775 49.1277 16.1904 48.1231 16.1904 47.052V47.0653Z" fill="#567490"/>
<path d="M18.074 54.6102C17.728 54.6035 17.3888 54.6368 17.0495 54.7166C15.852 54.9961 14.9803 55.688 14.488 56.819C14.2685 57.318 14.1753 57.8569 14.1687 58.3958C14.1554 59.2141 14.3283 59.9992 14.6477 60.751C15.293 62.2812 16.3443 63.4854 17.7348 64.3902C18.633 64.969 19.6109 65.3483 20.6821 65.4547C21.2609 65.5146 21.8331 65.4813 22.392 65.3217C23.5562 64.989 24.3745 64.2572 24.8136 63.1261C24.9932 62.6671 25.0664 62.1814 25.073 61.6891C25.0797 61.0238 24.9666 60.3718 24.747 59.7464C24.0617 57.7438 22.4051 55.9741 20.4159 55.1225C19.6641 54.8031 18.8858 54.6169 18.0675 54.6102H18.074Z" fill="#567490"/>
<path d="M14.1482 37.2254C14.8867 37.2254 15.6052 37.1256 16.2771 36.926C17.7674 36.4869 19.0515 35.7085 20.0827 34.5376C20.6682 33.8723 21.1074 33.1205 21.3469 32.2622C21.5332 31.5903 21.573 30.9116 21.4 30.2264C21.1472 29.2218 20.5352 28.4833 19.6503 27.971C18.9983 27.5984 18.2931 27.4055 17.548 27.3456C16.4502 27.2524 15.3924 27.4188 14.3678 27.8113C13.0571 28.3036 11.9261 29.0621 11.0279 30.1465C10.3693 30.9383 9.90346 31.8298 9.75709 32.861C9.6573 33.5529 9.73057 34.2315 10.0167 34.8769C10.3759 35.6885 10.9746 36.2674 11.7597 36.6666C12.5381 37.0657 13.3764 37.2121 14.1482 37.2254Z" fill="#567490"/>
<path d="M31.3002 30.0402C31.8657 30.0402 32.4312 29.987 32.9901 29.8672C33.8816 29.6676 34.7066 29.335 35.445 28.7961C36.0505 28.3503 36.5429 27.8114 36.8622 27.1262C37.135 26.5473 37.2481 25.9353 37.1816 25.2966C37.1084 24.598 36.8488 23.9726 36.4363 23.4004C36.0039 22.8017 35.4584 22.3226 34.8264 21.9368C33.7752 21.2914 32.6241 20.9521 31.3999 20.859C30.5483 20.7924 29.7035 20.8456 28.8719 21.0585C28.0136 21.2714 27.2152 21.6241 26.51 22.163C26.0576 22.5089 25.6717 22.9214 25.3724 23.4137C24.9066 24.1988 24.7535 25.0437 24.9265 25.9419C25.0596 26.6338 25.3856 27.2326 25.8314 27.7648C26.3171 28.3437 26.9091 28.7961 27.5744 29.1487C28.732 29.7674 29.9762 30.0469 31.2869 30.0469L31.3002 30.0402Z" fill="#567490"/>
<path d="M69.0687 47.538L68.8358 47.405C68.6561 47.2985 68.5365 47.1721 68.4633 47.0923C67.2525 45.8149 66.0415 44.3911 64.7242 42.7146C62.6019 40.0001 60.4996 37.0262 58.2974 33.6065C55.3767 29.0691 52.702 24.4186 50.3535 19.7947C48.943 17.0204 47.7722 14.4856 46.7809 12.0439C46.0158 10.1611 45.4503 8.58428 45.0046 7.07403C44.7052 6.04946 44.4988 5.18456 44.3591 4.34627C44.2327 3.58116 44.1861 2.93582 44.2194 2.31708C44.2393 1.95782 44.3059 1.61851 44.419 1.30581C44.4922 1.09957 44.5853 0.913284 44.705 0.75361C45.0377 0.287895 45.5234 0.0217688 46.1023 0.00180953C46.4549 -0.0114966 46.8141 0.0483802 47.2066 0.188095C47.5526 0.314503 47.8919 0.487487 48.2778 0.726998C48.8766 1.09957 49.4555 1.54533 50.1674 2.17737C50.999 2.92251 51.8306 3.7608 52.7886 4.82529C54.1326 6.32223 55.523 8.03208 57.0266 10.0413C59.3884 13.2015 61.6838 16.6145 64.0522 20.4866C66.4474 24.3986 68.6162 28.3107 70.5124 32.1162C71.8363 34.7708 72.9208 37.1859 73.8456 39.4878C74.3711 40.7918 74.8036 41.996 75.1762 43.1736C75.3625 43.7458 75.2028 44.1583 74.6905 44.4577L69.8604 47.3185C69.7672 47.3784 69.5942 47.4915 69.3414 47.5181L69.0754 47.5447L69.0687 47.538ZM46.2086 1.65177C46.2086 1.65177 46.1822 1.65177 46.1755 1.65177C46.109 1.65177 46.0889 1.66508 46.049 1.7183C46.0224 1.75157 46.0025 1.79814 45.9825 1.85136C45.9227 2.02434 45.8893 2.20398 45.876 2.40357C45.8494 2.90255 45.8828 3.42814 45.9959 4.06684C46.1223 4.83194 46.3152 5.63697 46.6012 6.59501C47.0337 8.05204 47.5793 9.57559 48.3244 11.4052C49.3024 13.8003 50.4533 16.2952 51.8438 19.0296C54.1724 23.6069 56.8137 28.2042 59.7078 32.695C61.8767 36.0681 63.9524 39.0088 66.0482 41.6767C67.2391 43.1936 68.3369 44.4909 69.408 45.6419L73.4596 43.2402C73.1203 42.2089 72.7411 41.191 72.302 40.0866C71.3972 37.8179 70.3261 35.4494 69.0221 32.8347C67.1526 29.0758 65.0037 25.2037 62.6352 21.3316C60.2933 17.5061 58.0245 14.1263 55.6959 11.0127C54.2256 9.04334 52.8684 7.37342 51.5577 5.90975C50.6463 4.89182 49.8546 4.09345 49.0695 3.39488C48.4375 2.82937 47.9252 2.43684 47.4129 2.11084C47.1268 1.93121 46.8874 1.81145 46.6545 1.72496C46.4882 1.66508 46.355 1.63847 46.2286 1.63847L46.2086 1.65177Z" fill="#567490"/>
<path d="M81.9215 65.2941C81.7285 65.2941 81.4624 65.2343 81.2295 64.9748C80.5709 64.2829 79.7592 63.6841 78.7413 63.1585C78.3088 62.9323 77.8698 62.7327 77.4306 62.5265L77.058 62.3535C76.5857 62.1339 76.08 61.8878 75.5744 61.595C74.6629 61.0628 73.951 60.4573 73.3855 59.7322C72.8666 59.0669 72.4673 58.3018 72.1613 57.4036C71.9151 56.6784 71.7755 56.0064 71.7356 55.3544C71.6823 54.4962 71.8153 53.7111 72.128 53.0059C71.7754 52.7265 71.4961 52.4071 71.2699 52.0412C70.9439 51.5023 70.6244 50.9567 70.3051 50.4112L69.8727 49.6461L69.6133 48.9874L70.2053 48.5883C71.2632 47.9562 72.3277 47.3308 73.3922 46.6988L75.8138 45.2617L76.1931 45.4081C76.5524 45.5478 76.6988 45.8339 76.752 45.927L77.1977 46.6788C77.4372 47.078 77.6701 47.4838 77.9163 47.883C78.2357 48.4219 78.4285 48.9808 78.4817 49.5663C78.9075 49.6528 79.3333 49.7991 79.779 50.0187C80.3512 50.2981 80.9034 50.6707 81.4623 51.1563C82.5068 52.0545 83.3053 53.0059 83.8974 54.077C84.4164 55.0018 84.749 55.9865 84.8887 57.0044C85.0151 57.8893 85.0018 58.7941 84.8621 59.6922C84.576 61.4753 83.8575 63.1984 82.7265 64.8151C82.6932 64.8617 82.6598 64.9016 82.6332 64.9415L82.4271 65.1943L82.0745 65.2808C82.0346 65.2808 81.988 65.2941 81.9348 65.2941H81.9215ZM81.9082 64.2762L82.0279 64.3361L81.9015 64.2496V64.2762H81.9082ZM82.4271 63.8172H82.4338C82.4338 63.8172 82.4338 63.8172 82.4271 63.8172ZM73.2059 52.7198L73.9311 53.1257L73.8512 53.272C73.4919 53.8309 73.3323 54.4762 73.3789 55.248C73.4121 55.7536 73.5186 56.2792 73.7182 56.8647C73.9643 57.5899 74.277 58.1886 74.6828 58.7076C75.1153 59.2598 75.6742 59.7388 76.3994 60.158C76.8451 60.4174 77.3175 60.6436 77.75 60.8499L78.1224 61.0229C78.5881 61.2358 79.0473 61.4553 79.4997 61.6882C80.3779 62.1406 81.1296 62.6462 81.7816 63.2117C82.5268 61.9942 82.9992 60.7567 83.2055 59.4394C83.3252 58.7009 83.3319 57.9691 83.2321 57.2506C83.119 56.4389 82.8463 55.6405 82.4338 54.8954C81.9348 54.0039 81.2561 53.1922 80.3646 52.4271C79.9122 52.0412 79.4731 51.7418 79.0273 51.5223C78.6414 51.3293 78.2888 51.2162 77.9494 51.1763L77.1245 51.0765L76.8917 50.6241C76.8651 50.5709 76.8251 50.4711 76.8185 50.3447V50.2781V50.1584C76.865 49.6594 76.7519 49.207 76.4791 48.7546C76.2396 48.3487 76.0002 47.9429 75.7541 47.5371L75.6209 47.3175L74.2305 48.1425C73.4055 48.6282 72.5805 49.1205 71.7556 49.6128C72.0616 50.1384 72.3742 50.664 72.6936 51.183C72.8732 51.4757 73.1128 51.7086 73.4255 51.8948L74.3102 52.4138L73.9576 53.1057L73.2125 52.7265L73.2059 52.7198Z" fill="#567490"/>
</svg>
