<svg width="119" height="44" viewBox="0 0 119 44" fill="none" xmlns="http://www.w3.org/2000/svg">
<path d="M87.5135 36.3184H35.3242" stroke="#0E3860" stroke-width="1.85826" stroke-linecap="round" stroke-linejoin="round"/>
<path d="M105.816 36.3179H115.051C116.975 36.3179 118.331 34.4132 117.709 32.6107L114.392 23.0499C114.011 22 113.24 21.108 112.227 20.6156L101.254 15.1709C100.706 14.9107 100.139 14.7249 99.535 14.6227C91.2285 13.3033 83.2287 12.718 75.7213 13.2847C74.402 13.3869 73.0919 13.0989 71.9584 12.4299C55.0853 2.79483 37.3854 -0.754443 21.776 11.0734C19.1001 13.1268 17.5577 12.4671 8.62877 14.1674C4.33618 14.8178 3.36988 18.8223 1.29792 21.4797C0.796189 22.2044 1.11209 22.223 1.00989 30.7524C1.00989 33.8278 3.49996 36.2993 6.5568 36.2993H17.0281" stroke="#0E3860" stroke-width="1.85826" stroke-linecap="round" stroke-linejoin="round"/>
<path d="M96.6529 42.6184C102.077 42.6184 106.474 38.2214 106.474 32.7975C106.474 27.3735 102.077 22.9766 96.6529 22.9766C91.229 22.9766 86.832 27.3735 86.832 32.7975C86.832 38.2214 91.229 42.6184 96.6529 42.6184Z" stroke="#0E3860" stroke-width="1.85826" stroke-linecap="round" stroke-linejoin="round"/>
<path d="M26.1705 42.6184C31.5945 42.6184 35.9914 38.2214 35.9914 32.7975C35.9914 27.3735 31.5945 22.9766 26.1705 22.9766C20.7466 22.9766 16.3496 27.3735 16.3496 32.7975C16.3496 38.2214 20.7466 42.6184 26.1705 42.6184Z" stroke="#0E3860" stroke-width="1.85826" stroke-linecap="round" stroke-linejoin="round"/>
<path d="M73.6406 13.1184L67.5548 16.2031C66.2633 16.8535 64.8139 17.123 63.383 16.965L39.2163 14.3727C38.4451 14.2891 37.7018 14.0011 37.07 13.5458L28.1875 7.09766" stroke="#0E3860" stroke-width="1.85826" stroke-linecap="round" stroke-linejoin="round"/>
<path d="M41.7148 3.61328V14.6421" stroke="#0E3860" stroke-width="1.85826" stroke-linecap="round" stroke-linejoin="round"/>
<path d="M1 22.419L11.1647 21.75" stroke="#0E3860" stroke-width="1.85826" stroke-linecap="round" stroke-linejoin="round"/>
<path d="M8.02344 14.2979V3.22266" stroke="#0E3860" stroke-width="1.85826" stroke-linecap="round" stroke-linejoin="round"/>
<path d="M14.6035 13.2109V2.19141" stroke="#0E3860" stroke-width="1.85826" stroke-linecap="round" stroke-linejoin="round"/>
<path d="M3.03516 4.00364L18.4773 1.58789" stroke="#0E3860" stroke-width="1.85826" stroke-linecap="round" stroke-linejoin="round"/>
<path d="M49.082 22.9766H52.046" stroke="#0E3860" stroke-width="1.85826" stroke-linecap="round" stroke-linejoin="round"/>
</svg>
