<svg width="89" height="85" viewBox="0 0 89 85" fill="none" xmlns="http://www.w3.org/2000/svg">
<path d="M44.2661 24.2402C43.6297 22.5688 40.1259 14.0716 33.3771 11.2182C33.3421 11.2042 33.3001 11.2042 33.2722 11.2322C32.7407 11.6937 27.999 16.1976 30.9713 26.3313C34.0205 36.7098 32.2861 42.1858 32.1742 42.5145C32.1742 42.5285 32.1672 42.5355 32.1532 42.5425L1.0247 79.084C0.954765 79.1679 1.04568 79.2938 1.14359 79.2449C3.07382 78.2867 11.0046 75.6222 31.1181 82.3291C39.9231 85.5951 56.6588 83.0774 56.9875 83.0284C56.9875 83.0284 56.9875 83.0284 56.9944 83.0284C57.3022 82.9165 76.017 75.9929 87.2487 79.14C87.3467 79.1679 87.4166 79.056 87.3536 78.9791L56.8056 42.5425C56.8056 42.5425 56.7916 42.5285 56.7916 42.5215C56.6657 42.1928 53.6935 34.374 58.1973 25.0795C60.1835 20.6385 56.358 12.1833 55.9384 11.2741C55.9174 11.2252 55.8685 11.2042 55.8195 11.2182C54.9383 11.5049 47.2384 14.2534 44.4619 24.2263C44.434 24.3242 44.3081 24.3382 44.2731 24.2402H44.2661Z" stroke="#567490" stroke-width="1.94445" stroke-miterlimit="10" stroke-linejoin="round"/>
<path d="M33.3149 11.1897L31.2168 1" stroke="#567490" stroke-width="1.94445" stroke-miterlimit="10" stroke-linecap="round" stroke-linejoin="round"/>
<path d="M55.8965 11.1897L57.5889 1" stroke="#567490" stroke-width="1.94445" stroke-miterlimit="10" stroke-linecap="round" stroke-linejoin="round"/>
<path d="M32.168 42.5273H56.7924" stroke="#567490" stroke-width="1.94445" stroke-miterlimit="10" stroke-linejoin="round"/>
<path d="M39.7056 42.5273L28.418 65.5363" stroke="#567490" stroke-width="1.94445" stroke-miterlimit="10" stroke-linecap="round" stroke-linejoin="round"/>
<path d="M48.9941 42.5273L60.2888 65.5363" stroke="#567490" stroke-width="1.94445" stroke-miterlimit="10" stroke-linecap="round" stroke-linejoin="round"/>
<path d="M6.38867 72.7822C6.38867 72.7822 11.487 69.4882 29.7683 75.7824C38.6082 78.9295 56.7426 76.3839 56.7426 76.3839C56.7426 76.3839 71.0654 71.81 81.4369 71.9219" stroke="#567490" stroke-width="1.94445" stroke-miterlimit="10" stroke-linejoin="round"/>
</svg>
