<svg width="126" height="76" viewBox="0 0 126 76" fill="none" xmlns="http://www.w3.org/2000/svg">
<path d="M35.3462 74.843C35.3462 75.0646 35.2347 75.2677 35.0434 75.3913C34.9576 75.4439 34.8723 75.4759 34.7915 75.4904H34.6896C34.5967 75.4904 34.4997 75.4696 34.4126 75.4321L0.8843 60.0187L0.882353 60.0178C0.654957 59.9145 0.5 59.6769 0.5 59.4182V17.9276C0.5 17.6956 0.619527 17.4848 0.801548 17.3765L0.801598 17.3766L0.809977 17.3714C1.00355 17.2511 1.24238 17.2406 1.44669 17.3454L1.44668 17.3454L1.45125 17.3477L34.9842 34.1142C35.2041 34.2241 35.3462 34.4493 35.3462 34.7033V74.843ZM1.81326 58.6779V58.9984L2.10442 59.1322L33.3241 73.4837L34.033 73.8095V73.0294V35.4066V35.0975L33.7566 34.9593L2.53686 19.3495L1.81326 18.9877V19.7967V58.6779Z" fill="#567490" stroke="#567490"/>
<path d="M34.5821 75.4815C34.4978 75.4669 34.417 75.435 34.3425 75.3865L34.3391 75.3844C34.1478 75.2621 34.0332 75.0498 34.0332 74.8341V34.6945C34.0332 34.4475 34.1774 34.2143 34.3953 34.1054L67.9237 17.3411C67.9244 17.3408 67.925 17.3405 67.9257 17.3402C68.1332 17.2399 68.3774 17.2504 68.5738 17.3652C68.7663 17.4868 68.8794 17.6947 68.8794 17.9187V59.4093C68.8794 59.6666 68.7347 59.8974 68.4941 60.0104C68.4936 60.0106 68.4931 60.0108 68.4925 60.0111L34.9622 75.4254L34.9581 75.4273C34.8791 75.4645 34.7969 75.4815 34.6898 75.4815H34.5821ZM35.6229 34.9598L35.3465 35.098V35.407V73.0298V73.8099L36.0553 73.4841L67.275 59.1326L67.5662 58.9988V58.6783V19.7971V18.9881L66.8426 19.3499L35.6229 34.9598Z" fill="#567490" stroke="#567490"/>
<path d="M34.3949 25.3735L34.3948 25.3735L20.6726 18.517C20.6725 18.517 20.6725 18.517 20.6724 18.517C20.4526 18.407 20.3105 18.1819 20.3105 17.9279C20.3105 17.6739 20.4527 17.4487 20.6726 17.3388L34.3948 10.4823L34.3948 10.4824L34.3999 10.4797C34.5803 10.387 34.7986 10.387 34.9789 10.4797L34.9789 10.4797L34.9841 10.4823L48.7062 17.3388C48.7062 17.3388 48.7063 17.3388 48.7063 17.3388C48.9262 17.4488 49.0683 17.674 49.0683 17.9279C49.0683 18.1818 48.9262 18.407 48.7063 18.517C48.7063 18.517 48.7062 18.517 48.7062 18.517L34.9841 25.3735L34.984 25.3735C34.8922 25.4194 34.7938 25.441 34.6894 25.441C34.585 25.441 34.4867 25.4194 34.3949 25.3735ZM23.3343 17.4808L22.4408 17.9279L23.3343 18.375L34.4656 23.9454L34.6894 24.0573L34.9131 23.9454L46.0446 18.375L46.9381 17.9279L46.0446 17.4808L34.9131 11.9104L34.6894 11.7985L34.4656 11.9104L23.3343 17.4808Z" fill="#567490" stroke="#567490"/>
<path d="M34.3951 0.57213L34.3951 0.572158L34.4002 0.56956C34.5805 0.476813 34.7988 0.476813 34.9792 0.56956L34.9791 0.569589L34.9842 0.57213L68.5172 17.3386C68.7371 17.4486 68.8792 17.6737 68.8792 17.9277C68.8792 18.1818 68.7371 18.4069 68.5172 18.5169L34.9842 35.2834C34.8925 35.3292 34.794 35.3509 34.6896 35.3509C34.5852 35.3509 34.4869 35.3293 34.3951 35.2834L0.862125 18.5169C0.642179 18.4069 0.5 18.1817 0.5 17.9277C0.5 17.6738 0.642178 17.4486 0.862126 17.3386L34.3951 0.57213ZM3.51471 17.4805L2.61996 17.9277L3.51471 18.375L34.4661 33.8461L34.6896 33.9578L34.9132 33.8461L65.8646 18.375L66.7594 17.9277L65.8646 17.4805L34.9132 2.00944L34.6896 1.89769L34.4661 2.00944L3.51471 17.4805Z" fill="#567490" stroke="#567490"/>
<path d="M87.1162 55.2739C87.1162 55.4954 87.0046 55.6986 86.8131 55.8222C86.7273 55.8748 86.6422 55.9068 86.5614 55.9212H86.4595C86.3665 55.9212 86.2694 55.9004 86.1824 55.863L70.9937 48.8791L70.9917 48.8782C70.7643 48.7749 70.6094 48.5373 70.6094 48.2786V29.4764C70.6094 29.2443 70.7289 29.0335 70.9108 28.9254L70.9109 28.9254L70.9192 28.9202C71.1128 28.7999 71.3517 28.7895 71.5561 28.8942L71.5561 28.8943L71.5606 28.8965L86.754 36.4933C86.974 36.6033 87.1162 36.8284 87.1162 37.0824V55.2739ZM71.9226 47.5383V47.8588L72.2138 47.9926L85.094 53.9145L85.8029 54.2405V53.4603V37.7856V37.4766L85.5265 37.3384L72.6462 30.8983L71.9226 30.5365V31.3455V47.5383Z" fill="#567490" stroke="#567490"/>
<path d="M86.3535 55.9104C86.2692 55.8958 86.1884 55.8639 86.1138 55.8154L86.1105 55.8133C85.9193 55.6911 85.8047 55.4788 85.8047 55.2631V37.0716C85.8047 36.8246 85.9488 36.5914 86.1667 36.4825L101.356 28.888C101.356 28.8877 101.357 28.8874 101.358 28.8871C101.565 28.7868 101.809 28.7972 102.006 28.9121C102.198 29.0337 102.311 29.2415 102.311 29.4656V48.2678C102.311 48.5252 102.166 48.756 101.926 48.869C101.925 48.8692 101.925 48.8693 101.924 48.8695L86.7336 55.8544L86.7336 55.8544L86.7296 55.8562C86.6506 55.8934 86.5684 55.9104 86.4613 55.9104H86.3535ZM87.3943 37.3369L87.1179 37.4751V37.7841V53.4587V54.2389L87.8268 53.913L100.707 47.9911L100.998 47.8572V47.5368V31.344V30.535L100.274 30.8968L87.3943 37.3369Z" fill="#567490" stroke="#567490"/>
<path d="M86.1649 21.2987L86.1649 21.2987L86.17 21.2961C86.3503 21.2034 86.5686 21.2034 86.749 21.2961L86.7489 21.2962L86.754 21.2987L101.948 28.8954C102.167 29.0054 102.31 29.2305 102.31 29.4846C102.31 29.7386 102.167 29.9637 101.948 30.0737L86.754 37.6704C86.6622 37.7163 86.5639 37.7379 86.4595 37.7379C86.3551 37.7379 86.2566 37.7163 86.1649 37.6704L70.9715 30.0737C70.7516 29.9637 70.6094 29.7385 70.6094 29.4846C70.6094 29.2306 70.7516 29.0054 70.9715 28.8954L86.1649 21.2987ZM73.6242 29.0373L72.7289 29.4846L73.6242 29.9318L86.236 36.2332L86.4595 36.3448L86.683 36.2332L99.2949 29.9318L100.19 29.4846L99.2949 29.0373L86.683 22.736L86.4595 22.6243L86.236 22.736L73.6242 29.0373Z" fill="#567490" stroke="#567490"/>
<mask id="path-8-inside-1_1830_6005" fill="white">
<path d="M102.065 42.0004L101.102 44.1035L101.421 44.2499L102.385 42.1468L102.065 42.0004Z"/>
</mask>
<path d="M102.065 42.0004L101.102 44.1035L101.421 44.2499L102.385 42.1468L102.065 42.0004Z" fill="#567490"/>
<path d="M101.102 44.1035L100.192 43.6871L99.776 44.5962L100.685 45.0127L101.102 44.1035ZM102.065 42.0004L102.481 41.0912L101.572 40.6748L101.156 41.5839L102.065 42.0004ZM102.385 42.1468L103.294 42.5633L103.71 41.6541L102.801 41.2376L102.385 42.1468ZM101.421 44.2499L101.005 45.1591L101.914 45.5755L102.33 44.6664L101.421 44.2499ZM102.011 44.52L102.974 42.4168L101.156 41.5839L100.192 43.6871L102.011 44.52ZM101.648 42.9095L101.968 43.056L102.801 41.2376L102.481 41.0912L101.648 42.9095ZM101.475 41.7304L100.512 43.8335L102.33 44.6664L103.294 42.5633L101.475 41.7304ZM101.838 43.3408L101.518 43.1944L100.685 45.0127L101.005 45.1591L101.838 43.3408Z" fill="#567490" mask="url(#path-8-inside-1_1830_6005)"/>
<path d="M88.5691 19.8436V22.1102H87.2559V17.9745C87.2559 17.7424 87.3754 17.5316 87.5573 17.4234L87.5573 17.4235L87.5657 17.4183C87.7593 17.298 87.9982 17.2875 88.2026 17.3923L88.2025 17.3923L88.2072 17.3946L103.41 24.9913C103.41 24.9913 103.41 24.9914 103.41 24.9914C103.63 25.1014 103.772 25.3265 103.772 25.5804V34.5741H102.459V26.2837V25.9746L102.182 25.8364L89.2926 19.3963L88.5691 19.0348V19.8436Z" fill="#567490" stroke="#567490"/>
<path d="M118.966 17.9656V30.4569H117.652V19.8347V19.0257L116.929 19.3875L104.049 25.8276L103.772 25.9658V26.2748V34.5745H102.459V25.5716C102.459 25.3246 102.603 25.0914 102.821 24.9825L118.01 17.388C118.011 17.3877 118.011 17.3874 118.012 17.3871C118.219 17.2868 118.464 17.2972 118.66 17.4121C118.852 17.5337 118.966 17.7415 118.966 17.9656Z" fill="#567490" stroke="#567490"/>
<path d="M102.821 9.79674L102.821 9.79677L102.826 9.79417C103.007 9.70142 103.225 9.70142 103.405 9.79417L103.405 9.7942L103.41 9.79674L118.604 17.3935C118.824 17.5034 118.966 17.7285 118.966 17.9826C118.966 18.2367 118.824 18.4618 118.604 18.5717L103.41 26.1685C103.318 26.2144 103.22 26.236 103.116 26.236C103.011 26.236 102.913 26.2143 102.821 26.1685L87.6278 18.5717C87.4078 18.4618 87.2656 18.2366 87.2656 17.9826C87.2656 17.7286 87.4078 17.5035 87.6277 17.3935L102.821 9.79674ZM90.2804 17.5353L89.3852 17.9826L90.2804 18.4299L102.892 24.7312L103.116 24.8429L103.339 24.7312L115.951 18.4299L116.846 17.9826L115.951 17.5353L103.339 11.234L103.116 11.1224L102.892 11.234L90.2804 17.5353Z" fill="#567490" stroke="#567490"/>
<path d="M51.3447 54.9941C46.5964 54.9941 42.7305 51.1281 42.7305 46.3799C42.7305 41.6316 46.5964 37.7656 51.3447 37.7656C56.0929 37.7656 59.959 41.6316 59.959 46.3799C59.959 51.1281 56.0929 54.9941 51.3447 54.9941ZM51.3447 39.0696C47.3211 39.0696 44.0437 42.347 44.0437 46.3706C44.0437 50.3942 47.3211 53.6716 51.3447 53.6716C55.3683 53.6716 58.6458 50.3942 58.6458 46.3706C58.6458 42.347 55.3683 39.0696 51.3447 39.0696Z" fill="#567490" stroke="#567490"/>
<path d="M112.758 52.3487C106.271 52.3487 100.998 47.0672 100.998 40.5884C100.998 34.1098 106.28 28.8281 112.758 28.8281C119.237 28.8281 124.519 34.1098 124.519 40.5884C124.519 47.067 119.237 52.3487 112.758 52.3487ZM112.758 30.1321C106.995 30.1321 102.311 34.816 102.311 40.5791C102.311 46.3423 106.995 51.0261 112.758 51.0261C118.522 51.0261 123.205 46.3423 123.205 40.5791C123.205 34.816 118.522 30.1321 112.758 30.1321Z" fill="#567490" stroke="#567490"/>
<path d="M26.5812 58.8363C26.465 58.9424 26.3108 59.0005 26.1549 59.0016C26.0646 59.001 25.9724 58.9807 25.8822 58.9384C25.8821 58.9383 25.882 58.9383 25.8819 58.9382L10.6656 51.7232C10.6651 51.7229 10.6646 51.7227 10.664 51.7224C10.501 51.643 10.3742 51.5015 10.3143 51.3206C10.2641 51.1506 10.283 50.9597 10.375 50.7893L18.4861 36.7314C18.4862 36.7313 18.4862 36.7311 18.4863 36.731C18.619 36.5031 18.8738 36.3779 19.1217 36.4037L19.1227 36.4039C19.3779 36.4299 19.5941 36.6005 19.6805 36.8528C19.6807 36.8532 19.6808 36.8536 19.6809 36.8541L26.7771 58.1331L26.7781 58.136C26.8609 58.3794 26.7879 58.6566 26.5904 58.8281L26.5903 58.8279L26.5812 58.8363ZM19.1735 35.9064C19.6269 35.9527 20.0062 36.258 20.1543 36.6929L19.1735 35.9064ZM12.1338 50.3687L11.8628 50.8381L12.3525 51.0705L23.9927 56.5945L25.0528 57.0976L24.6814 55.9845L19.2499 39.7085L18.8982 38.6546L18.3426 39.6167L12.1338 50.3687Z" fill="#567490" stroke="#567490"/>
</svg>
