<svg width="86" height="62" viewBox="0 0 86 62" fill="none" xmlns="http://www.w3.org/2000/svg">
<path d="M47.5225 28.5218C47.4502 28.5218 47.3779 28.5218 47.3056 28.4976L6.09815 19.5475C5.67233 19.4592 5.359 19.1057 5.31079 18.6718C5.26259 18.238 5.50362 17.8282 5.89729 17.6515L44.8712 0.0886825C45.0641 0.000306152 45.289 -0.0237965 45.4979 0.0244088L85.1869 8.56477C85.6047 8.65315 85.9261 8.99862 85.9743 9.43247C86.0225 9.85828 85.7975 10.268 85.4119 10.4528L47.9644 28.4253C47.8278 28.4896 47.6832 28.5218 47.5306 28.5218H47.5225ZM9.49662 18.2299L47.394 26.465L81.8849 9.91452L45.3935 2.05706L9.49662 18.2299Z" fill="#567490"/>
<path d="M11.4166 29.8227L13.4011 30.2566C13.377 30.8029 13.3529 31.5019 13.3368 32.2972L11.3443 31.8634L6.51574 30.8189C2.91642 30.7627 0 27.8061 0 24.1907C0 20.5753 2.97266 17.5625 6.62822 17.5625C7.18258 17.5625 7.6325 18.0124 7.6325 18.5668C7.6325 19.1211 7.18258 19.5711 6.62822 19.5711C4.08138 19.5711 2.00855 21.6439 2.00855 24.1907C2.00855 26.7376 4.08138 28.8104 6.62822 28.8104C6.70053 28.8104 6.77284 28.8184 6.84515 28.8345L11.4166 29.8227Z" fill="#567490"/>
<path d="M84.4628 20.848L47.1037 39.3829C46.9591 39.4472 46.8064 39.4873 46.6538 39.4873C46.5815 39.4873 46.5172 39.4793 46.4449 39.4632L23.5554 34.5061L21.5469 34.0723V32.0155L23.5554 32.4494L46.5252 37.4225L83.571 19.0483C84.0691 18.7992 84.6717 19.0001 84.9127 19.4982C85.1618 19.9963 84.9609 20.5989 84.4628 20.848Z" fill="#567490"/>
<path d="M46.6547 50.7437C46.5824 50.7437 46.51 50.7437 46.4458 50.7196L6.51574 42.0748C2.91642 42.0105 0 39.062 0 35.4466C0 31.8312 2.97266 28.8184 6.62822 28.8184C7.18258 28.8184 7.6325 29.2683 7.6325 29.8226C7.6325 30.377 7.18258 30.8269 6.62822 30.8269C4.08138 30.8269 2.00855 32.8997 2.00855 35.4466C2.00855 37.9934 4.08138 40.0663 6.62822 40.0663C6.70053 40.0663 6.77284 40.0663 6.83711 40.0904L46.5181 48.6789L83.5638 30.2967C84.0619 30.0556 84.6645 30.2565 84.9136 30.7466C85.1626 31.2447 84.9537 31.8473 84.4636 32.0963L47.1046 50.6312C46.968 50.7036 46.8153 50.7357 46.6547 50.7357V50.7437Z" fill="#567490"/>
<path d="M46.6547 61.9996C46.5824 61.9996 46.51 61.9996 46.4458 61.9755L6.51574 53.3307C2.91642 53.2744 0 50.3178 0 46.7024C0 43.087 2.97266 40.0742 6.62822 40.0742C7.18258 40.0742 7.6325 40.5241 7.6325 41.0785C7.6325 41.6329 7.18258 42.0828 6.62822 42.0828C4.08138 42.0828 2.00855 44.1556 2.00855 46.7024C2.00855 49.2493 4.08138 51.3221 6.62822 51.3221C6.70053 51.3221 6.77284 51.3221 6.83711 51.3462L46.5181 59.9348L83.5638 41.5525C84.0619 41.3115 84.6645 41.5123 84.9136 42.0024C85.1626 42.5005 84.9537 43.1031 84.4636 43.3522L47.1046 61.8871C46.968 61.9594 46.8153 61.9915 46.6547 61.9915V61.9996Z" fill="#567490"/>
<path d="M24.9948 27.5571C24.9145 27.1795 24.6092 26.8822 24.2316 26.7939L14.0763 24.6005C13.7389 24.5282 13.3774 24.6327 13.1363 24.8898C12.9917 25.0344 11.7223 26.4323 11.4411 29.4934C11.4331 29.5978 11.425 29.7022 11.417 29.8228C11.3768 30.353 11.3527 31.052 11.3447 31.8634C11.2644 35.977 11.425 42.8141 11.4331 43.1676C11.4491 43.5693 11.6902 43.9228 12.0597 44.0754C12.4374 44.2281 12.8551 44.1397 13.1444 43.8585L17.3382 39.737L21.7329 45.9635C21.9258 46.2366 22.2311 46.3893 22.5524 46.3893C22.6569 46.3893 22.7613 46.3732 22.8577 46.3411C23.2755 46.2045 23.5567 45.8189 23.5567 45.385V31.751C23.5406 31.1163 23.7013 29.2925 24.6333 28.5694C24.9466 28.3284 25.0832 27.9347 24.9948 27.5571ZM21.5481 42.2195L18.2943 37.6159C18.1256 37.3749 17.8604 37.2223 17.5632 37.1901H17.4748C17.2177 37.1901 16.9606 37.2946 16.7758 37.4794L13.4015 40.7975C13.3533 38.4756 13.305 34.8923 13.3372 32.2973C13.3533 31.5019 13.3774 30.8029 13.4015 30.2566C13.4175 30.0397 13.4256 29.8388 13.4416 29.6781C13.5782 28.1757 14.004 27.2116 14.2933 26.7055L22.2552 28.4248C21.524 29.887 21.5401 31.5581 21.5481 31.7831V42.2195Z" fill="#567490"/>
<path d="M62.1527 14.0355L67.3187 11.6253L45.6343 7.08594L40.0586 9.43996L62.1527 14.0355Z" fill="#567490"/>
</svg>
