<svg width="119" height="53" viewBox="0 0 119 53" fill="none" xmlns="http://www.w3.org/2000/svg">
<path d="M109.465 42.7722H112.68C113.842 42.7722 114.929 42.159 115.561 41.1927C118.952 35.8781 118.357 30.0338 115.245 23.8737C114.724 22.8424 113.888 21.9876 112.913 21.3743C108.889 18.8657 104.95 16.4964 101.094 14.2665C92.9641 9.59295 85.1872 5.59769 77.8843 2.4851C77.5312 2.32714 77.1317 2.25281 76.7415 2.22494C73.4616 2.0484 70.2282 1.89045 67.032 1.7325H67.0134C64.6441 1.63029 62.2934 1.53738 59.9706 1.43518C51.3297 1.10069 42.9582 0.924155 34.977 0.942738C24.8309 0.96132 15.298 1.27722 6.55487 2.01124C4.99392 2.15061 3.76747 3.37706 3.63739 4.91013L1.37031 29.625C0.561966 33.9455 1.05441 37.8014 3.07062 41.0905C3.70243 42.1404 4.86384 42.7722 6.10887 42.7722H18.5407" stroke="#0E3860" stroke-width="1.85826" stroke-linecap="round" stroke-linejoin="round"/>
<path d="M91.2475 42.7715H36.7539" stroke="#0E3860" stroke-width="1.85826" stroke-linecap="round" stroke-linejoin="round"/>
<path d="M100.357 51.877C105.386 51.877 109.463 47.8003 109.463 42.7715C109.463 37.7427 105.386 33.666 100.357 33.666C95.3286 33.666 91.252 37.7427 91.252 42.7715C91.252 47.8003 95.3286 51.877 100.357 51.877Z" stroke="#0E3860" stroke-width="1.85826" stroke-linecap="round" stroke-linejoin="round"/>
<path d="M27.6465 51.877C32.6753 51.877 36.752 47.8003 36.752 42.7715C36.752 37.7427 32.6753 33.666 27.6465 33.666C22.6177 33.666 18.541 37.7427 18.541 42.7715C18.541 47.8003 22.6177 51.877 27.6465 51.877Z" stroke="#0E3860" stroke-width="1.85826" stroke-linecap="round" stroke-linejoin="round"/>
<path d="M101.15 14.2117L97.9449 18.1233C96.3004 20.1302 93.7174 21.0965 91.1716 20.6505C84.4354 19.4798 71.8085 17.2313 71.7155 16.8504C71.5855 16.3301 67.0234 1.71484 67.0234 1.71484" stroke="#0E3860" stroke-width="1.85826" stroke-linecap="round" stroke-linejoin="round"/>
<path d="M59.9625 1.43555L60.2505 12.5015C60.3341 15.5398 55.9858 18.5409 53.4864 18.5409H18.7555C15.4478 18.5409 12.168 13.2727 12.168 9.46324V1.71429" stroke="#0E3860" stroke-width="1.85826" stroke-linecap="round" stroke-linejoin="round"/>
<path d="M34.9668 0.943359V18.5411" stroke="#0E3860" stroke-width="1.85826" stroke-linecap="round" stroke-linejoin="round"/>
<path d="M84.082 19.3949L79.5293 11.6738" stroke="#0E3860" stroke-width="1.85826" stroke-linecap="round" stroke-linejoin="round"/>
<path d="M48.6434 18.5401L45.5215 11.6738" stroke="#0E3860" stroke-width="1.85826" stroke-linecap="round" stroke-linejoin="round"/>
<path d="M26.9109 18.5401L23.7891 11.6738" stroke="#0E3860" stroke-width="1.85826" stroke-linecap="round" stroke-linejoin="round"/>
<path d="M71.9727 24.5332H75.0945" stroke="#0E3860" stroke-width="1.85826" stroke-linecap="round" stroke-linejoin="round"/>
<path d="M116.414 26.4746H108.34" stroke="#0E3860" stroke-width="1.85826" stroke-linecap="round" stroke-linejoin="round"/>
<path d="M1.5 28.1191L8.39415 30.4048C9.67635 30.8322 10.5404 32.0308 10.5404 33.378V42.7715" stroke="#0E3860" stroke-width="1.85826" stroke-linecap="round" stroke-linejoin="round"/>
</svg>
