<svg width="136" height="63" viewBox="0 0 136 63" fill="none" xmlns="http://www.w3.org/2000/svg">
<path d="M37.9019 62.6742C24.2556 62.6742 13.1465 51.5743 13.1465 37.9187V20.4667C13.1465 19.8231 13.6688 19.3008 14.3124 19.3008C14.956 19.3008 15.4784 19.8231 15.4784 20.4667V37.9187C15.4784 50.2778 25.5335 60.3423 37.9019 60.3423C50.2704 60.3423 60.3255 50.2871 60.3255 37.9187V20.9984C60.3255 20.3548 60.8478 19.8325 61.4915 19.8325C62.1351 19.8325 62.6574 20.3548 62.6574 20.9984V37.9187C62.6574 51.565 51.5576 62.6742 37.9019 62.6742Z" fill="#567490"/>
<path d="M67.153 43.5902C64.7465 43.5902 62.8343 42.9372 62.6851 42.8813C62.0788 42.6667 61.7616 42.0045 61.9762 41.3982C62.1907 40.7919 62.8623 40.4748 63.4592 40.6893C63.5245 40.7079 68.7947 42.4895 72.0127 39.6446C74.8949 37.1075 75.5106 31.4363 73.785 23.2373C70.2964 10.0294 57.1724 2.18492 39.5246 2.77256H37.8923C20.2165 2.16627 7.07387 10.0294 3.57602 23.2933C1.86906 31.4363 2.48467 37.1075 5.3669 39.6446C8.59426 42.4895 13.8737 40.7079 13.9204 40.6893C14.5267 40.4748 15.1889 40.8012 15.4034 41.4075C15.618 42.0138 15.3008 42.6761 14.6945 42.8906C14.424 42.9839 8.09994 45.1479 3.83722 41.4075C0.227432 38.2455 -0.621401 31.968 1.30941 22.7616C5.11508 8.32249 19.1532 -0.212277 37.939 0.449984H39.4873C58.2172 -0.193621 72.2645 8.32249 76.0608 22.7057C78.001 31.968 77.1522 38.2455 73.5424 41.4075C71.5836 43.1238 69.1958 43.5995 67.153 43.5995V43.5902Z" fill="#567490"/>
<path d="M26.036 36.3891C28.0245 36.3891 29.6364 34.4639 29.6364 32.0891C29.6364 29.7143 28.0245 27.7891 26.036 27.7891C24.0475 27.7891 22.4355 29.7143 22.4355 32.0891C22.4355 34.4639 24.0475 36.3891 26.036 36.3891Z" fill="#567490"/>
<path d="M44.0292 48.1801C43.171 49.971 41.2589 51.7805 37.8356 51.7805C34.4124 51.7805 32.1831 50.0922 31.6421 48.1801C31.0452 46.0813 34.487 45.4844 37.9009 45.4844C41.3148 45.4844 45.0272 46.0813 44.0292 48.1801Z" fill="#567490"/>
<path d="M48.6278 36.3891C50.6163 36.3891 52.2282 34.4639 52.2282 32.0891C52.2282 29.7143 50.6163 27.7891 48.6278 27.7891C46.6393 27.7891 45.0273 29.7143 45.0273 32.0891C45.0273 34.4639 46.6393 36.3891 48.6278 36.3891Z" fill="#567490"/>
<path d="M109.453 62.5867C94.8084 62.5867 82.9062 51.4869 82.9062 37.8313V6.48117C82.9062 5.45514 83.5126 4.5317 84.464 4.13061C85.4061 3.72953 86.4881 3.93474 87.2249 4.64363L96.6645 13.7847C109.527 7.24603 120.665 12.0871 123.799 13.7381L131.559 5.11934C132.268 4.32649 133.369 4.06532 134.367 4.44775C135.365 4.83018 135.999 5.76294 135.999 6.82629V37.8406C135.999 51.4869 124.088 62.5961 109.453 62.5961V62.5867ZM85.462 6.26664C85.462 6.26664 85.4061 6.26663 85.3688 6.28529C85.2382 6.34125 85.2382 6.45319 85.2382 6.48117V37.8313C85.2382 50.1904 96.1049 60.2548 109.453 60.2548C122.801 60.2548 133.667 50.1997 133.667 37.8313V6.81697C133.667 6.81697 133.667 6.66773 133.527 6.61176C133.387 6.55579 133.313 6.63974 133.294 6.66772L124.256 16.7136L123.425 16.2005C123.304 16.1259 111.001 8.67316 97.0096 16.2379L96.2541 16.6483L85.5926 6.33193C85.5926 6.33193 85.5273 6.26664 85.4527 6.26664H85.462Z" fill="#567490"/>
<path d="M97.8583 40.9087C99.8467 40.9087 101.459 38.9835 101.459 36.6086C101.459 34.2338 99.8467 32.3086 97.8583 32.3086C95.8698 32.3086 94.2578 34.2338 94.2578 36.6086C94.2578 38.9835 95.8698 40.9087 97.8583 40.9087Z" fill="#567490"/>
<path d="M120.44 40.9087C122.429 40.9087 124.041 38.9835 124.041 36.6086C124.041 34.2338 122.429 32.3086 120.44 32.3086C118.452 32.3086 116.84 34.2338 116.84 36.6086C116.84 38.9835 118.452 40.9087 120.44 40.9087Z" fill="#567490"/>
<path d="M111.3 44.3966C110.479 45.46 108.427 45.46 107.606 44.3966L106.906 43.4919L106.207 42.5871C105.386 41.5237 106.412 40.1992 108.054 40.1992H110.861C112.503 40.1992 113.529 41.5237 112.708 42.5871L112.009 43.4919L111.309 44.3966H111.3Z" fill="#567490"/>
</svg>
