<svg width="99" height="85" viewBox="0 0 99 85" fill="none" xmlns="http://www.w3.org/2000/svg">
<path fill-rule="evenodd" clip-rule="evenodd" d="M3.43384 42.9023H17.7228C19.0654 42.9023 20.1488 43.9936 20.1567 45.3362V74.5423C20.1567 75.8848 19.0654 76.9683 17.7228 76.9761H3.43384C2.0913 76.9761 1.00785 75.8848 1 74.5423V45.3362C1 43.9936 2.0913 42.9102 3.43384 42.9023Z" stroke="#567490" stroke-width="1.94444" stroke-miterlimit="10"/>
<path fill-rule="evenodd" clip-rule="evenodd" d="M23.3125 74.1183V45.6738H38.5044C43.9373 46.6474 49.3703 49.5994 54.7954 53.0146H64.7506C69.2493 53.2815 71.6125 57.8509 67.2394 60.8657C63.7457 63.4252 59.1449 63.276 54.4264 62.8599C51.1682 62.695 51.0269 67.0681 54.4264 67.0838C55.6041 67.178 56.8838 66.9032 58.0065 66.8953C63.8948 66.8953 68.7468 65.7648 71.7145 61.1169L73.2298 57.5761L88.0291 50.2353C95.4405 47.8015 100.701 55.5505 95.2443 60.9364C84.9201 68.4734 73.8736 74.9741 62.2696 80.3364C54.1045 85.3062 45.9315 85.1334 37.7664 80.3364L23.3204 74.1183H23.3125Z" stroke="#567490" stroke-width="1.94444" stroke-miterlimit="10"/>
<path fill-rule="evenodd" clip-rule="evenodd" d="M49.676 4.57421C49.5818 4.50355 49.4798 4.44074 49.3699 4.40934C49.2835 4.39364 49.205 4.39364 49.1186 4.40934C48.8988 4.43289 48.6947 4.53496 48.5455 4.70768L46.5592 7.06301C46.198 7.50267 45.5699 7.62044 45.0675 7.3535C44.8005 7.21218 44.5179 7.07871 44.2352 6.96095C43.9526 6.84318 43.615 6.71756 43.3167 6.6155C43.0183 6.51343 42.7121 6.42707 42.3588 6.32501C42.0055 6.22294 41.7072 6.14443 41.401 6.07377C40.8828 5.9403 40.506 5.47709 40.4903 4.94321L40.1919 1.70856C40.1762 1.5908 40.1448 1.48088 40.0977 1.37882C40.0506 1.29245 39.9878 1.21394 39.9171 1.15113C39.8465 1.08832 39.7601 1.04122 39.6659 1.01766C39.5638 0.994112 39.4461 0.994112 39.344 1.01766L35.1751 1.42592C35.0652 1.44162 34.9552 1.47303 34.8532 1.52014C34.7511 1.57509 34.6569 1.6536 34.5862 1.73997C34.5234 1.81848 34.4763 1.90484 34.4449 1.99905C34.4292 2.08541 34.4292 2.17178 34.4449 2.25814L34.7354 5.31222C34.7904 5.8932 34.4214 6.43492 33.8561 6.59194C33.6048 6.67831 33.3222 6.78037 33.0003 6.91384C32.6784 7.04731 32.4036 7.18078 32.1524 7.31424H32.1053C31.8384 7.45556 31.5557 7.60474 31.3202 7.76176H31.2417C30.9747 7.91878 30.7156 8.08365 30.4566 8.24853C30.0169 8.53902 29.4438 8.51546 29.0277 8.18572L26.3112 6.08162C26.2248 6.01881 26.1385 5.96386 26.0364 5.9246C25.9579 5.9089 25.8794 5.9089 25.8009 5.9246C25.6909 5.9403 25.581 5.97171 25.479 6.02667H25.4319C25.3612 6.08162 25.2905 6.13658 25.2356 6.20724L22.6055 9.40264C22.527 9.49685 22.4641 9.60677 22.4249 9.72453C22.4092 9.81089 22.4092 9.88941 22.4249 9.97577V10.0307C22.4327 10.1249 22.4563 10.2113 22.5034 10.2977V10.3369C22.5584 10.4154 22.6212 10.4861 22.6918 10.541L25.0472 12.5274C25.4947 12.8885 25.6124 13.5245 25.3376 14.0269C25.1963 14.286 25.0707 14.5451 24.9529 14.812C24.8195 15.1104 24.7096 15.4166 24.6075 15.7306C24.5133 16.0211 24.4112 16.3352 24.3092 16.6885C24.2071 17.0418 24.1286 17.3479 24.0579 17.6463C23.9559 18.1723 23.5162 18.5727 22.9823 18.6198L19.7398 18.9182C19.6299 18.9339 19.52 18.9653 19.4179 19.0124C19.3316 19.0595 19.253 19.1223 19.1824 19.2008C19.1196 19.2715 19.0725 19.3578 19.0489 19.452C19.0254 19.5541 19.0254 19.664 19.0489 19.7661L19.4572 23.935C19.465 24.0528 19.5043 24.1627 19.5514 24.2648C19.6063 24.3668 19.677 24.461 19.7634 24.5317C19.8419 24.5945 19.9282 24.6416 20.0225 24.673C20.1167 24.6887 20.2187 24.6887 20.3129 24.673L23.367 24.3825C23.9323 24.3433 24.4505 24.7123 24.5996 25.2619C24.686 25.5131 24.7959 25.8036 24.9294 26.1176C25.0629 26.4317 25.1885 26.7065 25.3298 26.9734L25.3848 27.0833C25.5104 27.3267 25.6517 27.5936 25.8087 27.8684L26.3347 28.732C26.6095 29.1717 26.5781 29.737 26.2562 30.1452L24.0815 32.8225C24.0265 32.901 23.9794 32.9873 23.9401 33.0737C23.9244 33.1522 23.9244 33.2229 23.9401 33.3014C23.948 33.4191 23.9794 33.5291 24.0344 33.6311C24.0815 33.7253 24.1521 33.8117 24.2385 33.8745C25.3219 34.7774 26.4368 35.6646 27.5124 36.5753C27.5831 36.6302 27.6616 36.6695 27.7479 36.6931C27.85 36.7166 27.9442 36.7166 28.0463 36.6931C28.164 36.6773 28.2818 36.6459 28.3917 36.5988H28.431C28.5016 36.5517 28.5723 36.4968 28.643 36.434L30.6057 34.0786C30.9669 33.6311 31.595 33.5055 32.1053 33.7803C32.3722 33.9216 32.6549 34.0551 32.9375 34.1728C33.2437 34.3063 33.5499 34.4162 33.8561 34.5183C34.1623 34.6204 34.4528 34.7146 34.8139 34.8166C35.1751 34.9187 35.4656 34.9972 35.7718 35.0679C36.3056 35.1856 36.6903 35.6567 36.706 36.1984L37.0044 39.3938C37.0201 39.5037 37.0515 39.6137 37.1064 39.7157C37.1535 39.8021 37.2085 39.8884 37.287 39.9513C37.3655 40.0062 37.444 40.0533 37.5382 40.0847C37.6482 40.1083 37.7502 40.1083 37.8601 40.0847L42.0212 39.6765C42.139 39.6686 42.2489 39.6294 42.3588 39.5823C42.453 39.5351 42.5394 39.4723 42.6101 39.3938C42.6807 39.3075 42.7357 39.2054 42.7749 39.1033C42.7985 39.0091 42.7985 38.9149 42.7749 38.8207L42.4923 35.7588C42.4373 35.2092 42.7592 34.691 43.2774 34.5026C43.5836 34.4005 43.8898 34.2828 44.1881 34.1571H44.2823C44.5336 34.0472 44.7848 33.9216 45.0675 33.7803H45.1146C45.4129 33.6311 45.7034 33.4741 45.9625 33.3171L46.8339 32.7911C47.2736 32.5084 47.8389 32.5477 48.2393 32.8774L50.893 35.0443C50.9715 35.1071 51.0578 35.1542 51.152 35.1856C51.2384 35.2092 51.3169 35.2092 51.4033 35.1856C51.5132 35.1856 51.6231 35.1542 51.7252 35.0993C51.8115 35.0443 51.8979 34.9737 51.9607 34.8873C52.8636 33.8038 53.7508 32.689 54.6615 31.6134C54.7164 31.5427 54.7557 31.4721 54.7793 31.3857C54.795 31.2836 54.795 31.1894 54.7793 31.0874C54.7636 30.9696 54.7321 30.8518 54.685 30.7419C54.6379 30.6477 54.5673 30.5613 54.4888 30.4907L52.1334 28.575C51.6781 28.2139 51.5525 27.5779 51.8272 27.0676C51.9686 26.8007 52.102 26.518 52.2198 26.2354C52.3533 25.9135 52.471 25.6073 52.5652 25.3247C52.6595 25.042 52.7537 24.7123 52.8557 24.359C52.9578 24.0057 53.0363 23.7152 53.107 23.4011C53.2326 22.8594 53.7037 22.4747 54.2611 22.4669L57.5271 22.1214C57.6449 22.1057 57.7548 22.0743 57.8569 22.0272C57.9432 21.9801 58.0139 21.9173 58.0846 21.8466C58.1395 21.7681 58.1866 21.6896 58.218 21.5954C58.2337 21.4933 58.2337 21.3991 58.218 21.2971L57.8098 17.136C57.7941 17.0261 57.7627 16.9161 57.7156 16.8141V16.767C57.6606 16.6806 57.5978 16.6099 57.5193 16.5471C57.4408 16.4843 57.3544 16.4372 57.2602 16.4058C57.1738 16.3901 57.0875 16.3901 57.0011 16.4058L53.9156 16.6256C53.3661 16.6806 52.8557 16.3587 52.6595 15.8405C52.5574 15.55 52.4475 15.2439 52.3062 14.9298C52.1648 14.6158 52.0314 14.286 51.8979 14.0269V13.972C51.7644 13.705 51.6153 13.4381 51.4582 13.1869C51.3012 12.9199 51.1206 12.653 50.9401 12.4018C50.6339 11.9542 50.6653 11.3654 51.0107 10.9493L53.1619 8.28778C53.2326 8.20927 53.2797 8.11506 53.319 8.01299C53.3347 7.93448 53.3347 7.86382 53.319 7.78531C53.3033 7.66754 53.2718 7.55763 53.2169 7.45556V7.40061C53.1698 7.32995 53.1148 7.26714 53.052 7.21218L50.1079 4.79404C49.9508 4.75479 49.8017 4.67628 49.676 4.57421Z" stroke="#567490" stroke-width="1.94444" stroke-miterlimit="10"/>
<path fill-rule="evenodd" clip-rule="evenodd" d="M37.6725 11.217C38.277 11.1699 38.8815 11.1699 39.4861 11.217C40.1142 11.2798 40.7344 11.4054 41.3389 11.586C41.9121 11.7665 42.4695 12.0021 43.0034 12.2847L43.074 12.324C43.5687 12.5988 44.0476 12.9207 44.4872 13.274C45.4058 14.0591 46.1752 15.0012 46.7562 16.0611C47.0624 16.6028 47.3058 17.1838 47.4785 17.7805C47.6591 18.385 47.7768 19.0053 47.8239 19.6333C47.8789 20.2379 47.8789 20.8346 47.8239 21.4391C47.769 22.0672 47.6512 22.6874 47.4628 23.292V23.3705C47.2822 23.9122 47.0624 24.4382 46.7876 24.9407C46.505 25.4667 46.1752 25.9613 45.8062 26.4324L45.7277 26.5188C44.9661 27.4138 44.0397 28.1596 43.0034 28.7249C42.4538 29.0233 41.8728 29.2666 41.2761 29.4472C40.6716 29.6199 40.0592 29.7377 39.4311 29.7927C38.8187 29.8398 38.1985 29.8398 37.5861 29.7927C36.958 29.7299 36.3378 29.6121 35.7333 29.4237C35.1601 29.2431 34.6027 29.0076 34.0767 28.7249C33.5507 28.4344 33.056 28.1047 32.585 27.7357C32.1296 27.351 31.7056 26.927 31.3288 26.4638C30.9441 25.9927 30.6065 25.4903 30.3081 24.9564C30.0098 24.4068 29.7743 23.8258 29.5937 23.2291C29.4131 22.6246 29.2954 22.0044 29.2482 21.3763C29.1933 20.7718 29.1933 20.1751 29.2482 19.5705C29.3032 18.9424 29.421 18.3222 29.6094 17.7177C29.79 17.1445 30.0255 16.5871 30.3081 16.0532L30.3474 15.9826C30.6222 15.4801 30.9362 15.0012 31.2974 14.5615L31.3602 14.483C31.7292 14.0434 32.1375 13.643 32.585 13.2818C33.056 12.8971 33.5585 12.5595 34.0924 12.269C34.642 11.9707 35.2151 11.7273 35.8118 11.5467C36.4163 11.374 37.0365 11.2562 37.6646 11.2013V11.217H37.6725Z" stroke="#567490" stroke-width="1.94444" stroke-miterlimit="10"/>
<path fill-rule="evenodd" clip-rule="evenodd" d="M84.0093 20.5116C83.9465 20.4645 83.8837 20.4252 83.8052 20.4017C83.7502 20.386 83.6953 20.386 83.6403 20.4017C83.4912 20.4174 83.3577 20.488 83.2635 20.598L81.9523 22.1446C81.709 22.4351 81.3007 22.5136 80.971 22.3331C80.7982 22.2388 80.6098 22.1525 80.4214 22.074C80.233 21.9955 80.0131 21.9169 79.8168 21.8463C79.6206 21.7756 79.4164 21.7207 79.1888 21.6579C78.9611 21.595 78.7569 21.5401 78.5607 21.493C78.2152 21.4066 77.9718 21.1004 77.964 20.7471L77.7677 18.6195C77.7599 18.541 77.7363 18.4703 77.7049 18.3997C77.6735 18.3447 77.6342 18.2897 77.5871 18.2505C77.54 18.2112 77.4851 18.1798 77.4223 18.1641C77.3516 18.1484 77.2809 18.1484 77.2103 18.1641L74.4702 18.4311C74.3996 18.4389 74.3289 18.4625 74.2583 18.4939C74.1876 18.5331 74.1326 18.5802 74.0855 18.6352C74.0463 18.6823 74.0149 18.7451 73.9913 18.8079C73.9835 18.8629 73.9835 18.9257 73.9913 18.9806L74.1798 20.9905C74.219 21.3752 73.9756 21.7285 73.5988 21.8306C73.4339 21.8855 73.2455 21.9562 73.0335 22.0426C72.8215 22.1289 72.6409 22.2153 72.4761 22.3095H72.4447C72.2719 22.4037 72.0835 22.4979 71.9265 22.6078H71.8715C71.6988 22.7099 71.5261 22.8198 71.3534 22.9297C71.0629 23.1182 70.686 23.1025 70.4112 22.8905L68.6212 21.5087C68.5662 21.4616 68.5034 21.4302 68.4406 21.4066C68.3856 21.3988 68.3385 21.3988 68.2836 21.4066C68.2129 21.4145 68.1344 21.438 68.0716 21.4773H68.0402C67.9931 21.5087 67.946 21.5479 67.9146 21.595L66.1873 23.6991C66.1324 23.762 66.0931 23.8326 66.0696 23.9111C66.0617 23.9661 66.0617 24.021 66.0696 24.076V24.1153C66.0696 24.1781 66.0931 24.233 66.1245 24.288V24.3115C66.1559 24.3586 66.203 24.4057 66.2501 24.445L67.7968 25.7561C68.0873 25.9995 68.1737 26.4078 67.9852 26.7454C67.891 26.9102 67.8047 27.083 67.734 27.2635C67.6476 27.4598 67.5691 27.6639 67.5063 27.8681C67.4435 28.0565 67.3807 28.2685 67.31 28.4962C67.2394 28.7238 67.1923 28.928 67.1452 29.1243C67.0824 29.4697 66.7919 29.7366 66.4386 29.768L64.3031 29.9643C64.2324 29.9722 64.1539 29.9957 64.0911 30.0271C64.0361 30.0585 63.9812 30.0978 63.9341 30.1527C63.8948 30.1999 63.8634 30.2548 63.8477 30.3176C63.832 30.3883 63.832 30.4589 63.8477 30.5217L64.1146 33.2618C64.1146 33.3403 64.1461 33.4109 64.1775 33.4816C64.2089 33.5523 64.256 33.6072 64.3188 33.6543C64.3737 33.6936 64.4287 33.725 64.4915 33.7485C64.5543 33.7564 64.6171 33.7564 64.6799 33.7485L66.6898 33.5601C67.0667 33.5366 67.4043 33.78 67.4985 34.1411C67.5534 34.306 67.6241 34.4944 67.7183 34.7064C67.8125 34.9184 67.891 35.0911 67.9852 35.2717L68.0245 35.3423C68.1109 35.4993 68.1972 35.6799 68.3071 35.8605L68.6526 36.4258C68.8332 36.7163 68.8175 37.0853 68.5976 37.3522L67.1687 39.1108C67.1295 39.1658 67.0981 39.2208 67.0745 39.2757C67.0667 39.3228 67.0667 39.3778 67.0745 39.4249C67.0745 39.5034 67.1059 39.5741 67.1373 39.6447C67.1687 39.7075 67.2158 39.7625 67.2708 39.8017C67.9852 40.3984 68.7154 40.9794 69.422 41.5761C69.4691 41.6075 69.5241 41.6389 69.579 41.6546C69.6418 41.6703 69.7125 41.6703 69.7753 41.6546C69.8538 41.6467 69.9323 41.6232 70.003 41.5918H70.0265C70.0736 41.5604 70.1207 41.5211 70.1678 41.4819L71.4633 39.9352C71.7067 39.6447 72.1149 39.5584 72.4525 39.7389C72.6331 39.8331 72.8137 39.9195 73.0021 39.998C73.2062 40.0844 73.4025 40.155 73.6066 40.2257C73.8108 40.2964 73.9992 40.3513 74.2347 40.422C74.4702 40.4926 74.6665 40.5397 74.8628 40.5869C75.2161 40.6654 75.4673 40.9716 75.4752 41.3327L75.6715 43.4368C75.6793 43.5075 75.7029 43.586 75.7421 43.6488C75.7735 43.7116 75.8128 43.7587 75.8599 43.8058C75.907 43.8451 75.962 43.8765 76.0248 43.8922C76.0954 43.9079 76.1661 43.9079 76.2367 43.8922L78.9768 43.6252C79.0553 43.6252 79.1259 43.5938 79.1966 43.5624C79.2594 43.531 79.3144 43.4918 79.3615 43.4368C79.4086 43.3818 79.4478 43.3112 79.4714 43.2484C79.4871 43.1856 79.4871 43.1228 79.4714 43.0599L79.283 41.0422C79.2437 40.6811 79.4557 40.3356 79.8011 40.2179C80.0053 40.1472 80.2015 40.0765 80.3978 39.9902H80.4606C80.6255 39.9195 80.7904 39.8331 80.9788 39.7389H81.0102C81.2065 39.6369 81.3949 39.5348 81.5676 39.4327L82.1408 39.0873C82.4313 38.9067 82.8003 38.9224 83.0672 39.1423L84.8101 40.5712C84.8651 40.6104 84.9201 40.6418 84.9829 40.6654C85.0378 40.6811 85.0928 40.6811 85.1477 40.6654C85.2184 40.6654 85.2969 40.6418 85.3597 40.6104C85.4225 40.5712 85.4696 40.524 85.5167 40.4691C86.1134 39.7546 86.6944 39.0245 87.2911 38.3179C87.3225 38.2708 87.3539 38.2237 87.3696 38.1687C87.3775 38.1059 87.3775 38.0352 87.3696 37.9724C87.3617 37.8939 87.3382 37.8154 87.3068 37.7448C87.2754 37.6819 87.2283 37.627 87.1812 37.5799L85.6345 36.3159C85.3362 36.0803 85.2498 35.6564 85.4304 35.3266C85.5246 35.146 85.611 34.9655 85.6895 34.777C85.7758 34.5651 85.8543 34.3609 85.9171 34.1804C85.98 33.9998 86.0428 33.78 86.1056 33.5444C86.1684 33.3089 86.2233 33.1205 86.2704 32.9163C86.349 32.563 86.663 32.3039 87.032 32.3039L89.1832 32.0763C89.2617 32.0684 89.3324 32.0449 89.403 32.0135C89.458 31.9821 89.5051 31.9428 89.5522 31.8957C89.5915 31.8486 89.6229 31.7936 89.6386 31.7308C89.6464 31.668 89.6464 31.5973 89.6386 31.5345L89.3716 28.7945C89.3638 28.7238 89.3402 28.6532 89.3088 28.5825V28.5511C89.2696 28.4962 89.2303 28.4491 89.1832 28.4098C89.1361 28.3705 89.0733 28.3391 89.0105 28.3156C88.9555 28.3077 88.8927 28.3077 88.8378 28.3156L86.8043 28.4569C86.4432 28.4883 86.1056 28.2763 85.98 27.9387C85.9093 27.7503 85.8386 27.5462 85.7444 27.3421C85.6502 27.1379 85.5638 26.9181 85.4775 26.7454V26.7061C85.3911 26.5255 85.2969 26.3528 85.187 26.1879C85.0849 26.0152 84.9672 25.8346 84.8494 25.6698C84.6531 25.3793 84.6688 24.9867 84.8965 24.7119L86.3097 22.9611C86.3568 22.9062 86.3882 22.8434 86.4118 22.7806C86.4196 22.7335 86.4196 22.6785 86.4118 22.6314C86.4039 22.5529 86.3804 22.4822 86.3411 22.4116V22.3723C86.3097 22.3252 86.2704 22.2859 86.2312 22.2467L84.292 20.6529C84.1899 20.6294 84.0878 20.5744 84.0093 20.5116Z" stroke="#567490" stroke-width="1.55556" stroke-miterlimit="10"/>
<path fill-rule="evenodd" clip-rule="evenodd" d="M76.1114 24.8771C76.5118 24.8457 76.9044 24.8457 77.3048 24.8771C77.7209 24.9163 78.1291 25.0027 78.5217 25.1205C78.8986 25.2382 79.2676 25.3952 79.6209 25.5837L79.668 25.6072C79.9977 25.7878 80.3039 25.9998 80.5944 26.2353C81.1989 26.7456 81.7092 27.3737 82.0861 28.0725C82.2902 28.4336 82.4473 28.8105 82.565 29.203C82.6828 29.6034 82.7613 30.0117 82.7927 30.4199C82.832 30.8125 82.832 31.2129 82.7927 31.6055C82.7613 32.0216 82.6749 32.4298 82.5572 32.8224V32.8773C82.4394 33.2306 82.2902 33.5839 82.1097 33.9137C81.9212 34.2591 81.7092 34.5889 81.4659 34.8951L81.4109 34.95C80.9084 35.5389 80.2961 36.0335 79.6209 36.4025C79.2597 36.5988 78.875 36.7558 78.4825 36.8814C78.0899 36.9992 77.6816 37.0698 77.2655 37.1091C76.8651 37.1405 76.4569 37.1405 76.0486 37.1091C75.6325 37.0698 75.2242 36.9913 74.8317 36.8657C74.4548 36.7479 74.0937 36.5909 73.7404 36.4025C73.3949 36.2141 73.0652 35.9942 72.759 35.7508C72.4607 35.4996 72.178 35.217 71.9346 34.9108C71.6834 34.5967 71.4557 34.267 71.2594 33.9215C71.0632 33.5604 70.9061 33.1757 70.7884 32.7831C70.6706 32.3827 70.5921 31.9745 70.5607 31.5662C70.5214 31.1736 70.5214 30.7732 70.5607 30.3807C70.5921 29.9646 70.6785 29.5563 70.7962 29.1638C70.914 28.7869 71.071 28.4179 71.2594 28.0646L71.283 28.0175C71.4636 27.6878 71.6677 27.3737 71.9111 27.0832L71.9503 27.0283C72.1937 26.7378 72.4607 26.4708 72.759 26.2353C73.073 25.9841 73.4028 25.7642 73.7482 25.568C74.1094 25.3717 74.4862 25.2147 74.8788 25.089C75.2792 24.9713 75.6875 24.9006 76.0957 24.8614L76.1114 24.8771Z" stroke="#567490" stroke-width="1.55556" stroke-miterlimit="10"/>
<path fill-rule="evenodd" clip-rule="evenodd" d="M13.7578 65.9707C15.3045 65.9707 16.5528 67.2112 16.5607 68.7578C16.5607 70.3045 15.3202 71.5528 13.7735 71.5607C12.2269 71.5607 10.9786 70.3202 10.9707 68.7735C10.9707 67.2347 12.219 65.9864 13.7578 65.9786V65.9707Z" stroke="#567490" stroke-width="1.94444" stroke-miterlimit="10"/>
</svg>
