<svg width="84" height="85" viewBox="0 0 84 85" fill="none" xmlns="http://www.w3.org/2000/svg">
<path d="M33.4535 1H4.0155C2.35009 1 1 2.35009 1 4.0155V24.8359C1 26.5013 2.35009 27.8514 4.0155 27.8514H33.4535C35.1189 27.8514 36.469 26.5013 36.469 24.8359V4.0155C36.469 2.35009 35.1189 1 33.4535 1Z" stroke="#567490" stroke-width="1.67528" stroke-miterlimit="10"/>
<path d="M79.5506 51.6875H34.4589C32.7934 51.6875 31.4434 53.0376 31.4434 54.703V80.9781C31.4434 82.6435 32.7934 83.9936 34.4589 83.9936H79.5506C81.2161 83.9936 82.5661 82.6435 82.5661 80.9781V54.703C82.5661 53.0376 81.2161 51.6875 79.5506 51.6875Z" stroke="#567490" stroke-width="1.67528" stroke-miterlimit="10"/>
<path d="M75.6695 56.4922H48.9589C47.2934 56.4922 45.9434 57.8423 45.9434 59.5077V76.8167C45.9434 78.4821 47.2934 79.8322 48.9589 79.8322H75.6695C77.3349 79.8322 78.685 78.4821 78.685 76.8167V59.5077C78.685 57.8423 77.3349 56.4922 75.6695 56.4922Z" stroke="#567490" stroke-width="1.67528" stroke-miterlimit="10"/>
<path d="M40.5368 56.4922H36.811C35.7784 56.4922 34.9414 57.3292 34.9414 58.3618V62.9521C34.9414 63.9846 35.7784 64.8217 36.811 64.8217H40.5368C41.5694 64.8217 42.4065 63.9846 42.4065 62.9521V58.3618C42.4065 57.3292 41.5694 56.4922 40.5368 56.4922Z" stroke="#567490" stroke-width="1.34022" stroke-miterlimit="10"/>
<path d="M30.6328 15.6016V25.1842" stroke="#567490" stroke-width="1.67528" stroke-miterlimit="10" stroke-linecap="round"/>
<path d="M33.4535 83.9993H4.0155C2.34692 83.9993 1 82.6524 1 80.9838V34.1698C1 32.5012 2.34692 31.1543 4.0155 31.1543H33.4535C35.1221 31.1543 36.469 32.5012 36.469 34.1698V51.5324" stroke="#567490" stroke-width="1.67528" stroke-miterlimit="10"/>
<path d="M30.6328 35.2227V47.1908" stroke="#567490" stroke-width="1.67528" stroke-miterlimit="10" stroke-linecap="round"/>
<path d="M38.6734 72.1321C39.9169 72.1321 40.925 71.124 40.925 69.8805C40.925 68.637 39.9169 67.6289 38.6734 67.6289C37.4299 67.6289 36.4219 68.637 36.4219 69.8805C36.4219 71.124 37.4299 72.1321 38.6734 72.1321Z" stroke="#567490" stroke-width="1.34022" stroke-miterlimit="10"/>
<path d="M38.6734 79.8391C39.9169 79.8391 40.925 78.831 40.925 77.5875C40.925 76.344 39.9169 75.3359 38.6734 75.3359C37.4299 75.3359 36.4219 76.344 36.4219 77.5875C36.4219 78.831 37.4299 79.8391 38.6734 79.8391Z" stroke="#567490" stroke-width="1.34022" stroke-miterlimit="10"/>
</svg>
