<svg width="112" height="84" viewBox="0 0 112 84" fill="none" xmlns="http://www.w3.org/2000/svg">
<g clip-path="url(#clip0_1604_5901)">
<path d="M49.5566 18.0252V4.52611L61.8873 1.19727V13.403" stroke="#567490" stroke-width="2.5" stroke-miterlimit="10" stroke-linecap="round"/>
<path d="M47.3192 20.6965C48.8777 20.2246 49.8502 18.8718 49.4912 17.6749C49.1323 16.4781 47.5778 15.8904 46.0193 16.3623C44.4607 16.8342 43.4883 18.187 43.8472 19.3839C44.2062 20.5807 45.7606 21.1684 47.3192 20.6965Z" stroke="#567490" stroke-width="2.5" stroke-miterlimit="10" stroke-linecap="round"/>
<path d="M59.6414 16.0793C61.2 15.6074 62.1725 14.2546 61.8135 13.0577C61.4546 11.8609 59.9001 11.2732 58.3416 11.7451C56.783 12.2171 55.8105 13.5698 56.1695 14.7667C56.5284 15.9635 58.0829 16.5512 59.6414 16.0793Z" stroke="#567490" stroke-width="2.5" stroke-miterlimit="10" stroke-linecap="round"/>
<path d="M11.7747 54.8854C17.7729 54.8854 22.6354 49.9997 22.6354 43.973C22.6354 37.9462 17.7729 33.0605 11.7747 33.0605C5.77654 33.0605 0.914062 37.9462 0.914062 43.973C0.914062 49.9997 5.77654 54.8854 11.7747 54.8854Z" stroke="#567490" stroke-width="2.5" stroke-miterlimit="10" stroke-linecap="round"/>
<path d="M10.7285 38.0566V45.3242H17.596" stroke="#567490" stroke-width="2.5" stroke-miterlimit="10" stroke-linecap="round"/>
<path d="M106.925 38.6387H90.7908C88.4966 38.6387 86.6367 40.5074 86.6367 42.8126V53.049C86.6367 55.3541 88.4966 57.2229 90.7908 57.2229H106.925C109.219 57.2229 111.079 55.3541 111.079 53.049V42.8126C111.079 40.5074 109.219 38.6387 106.925 38.6387Z" stroke="#567490" stroke-width="2.5" stroke-miterlimit="10" stroke-linecap="round"/>
<path d="M103.107 47.4497C103.472 47.6628 103.472 48.1993 103.107 48.4124L100.05 50.1833L96.9924 51.9543C96.6268 52.1674 96.166 51.9029 96.166 51.4767V44.3928C96.166 43.9666 96.6268 43.702 96.9924 43.9151L100.05 45.6861L103.107 47.4571V47.4497Z" stroke="#567490" stroke-width="2.5" stroke-miterlimit="10" stroke-linecap="round"/>
<path d="M44.4083 50.4761L43.9476 43.451C43.9476 43.451 41.8339 38.3658 49.5571 35.2207C52.5044 34.1111 53.148 33.0603 53.148 33.0603C53.148 33.0603 57.1047 28.563 62.6264 32.443C68.1482 36.323 69.8961 39.7473 69.8961 39.7473C69.8961 39.7473 71.3661 41.7829 69.5304 50.4687C69.5304 50.4687 72.3827 50.1013 71.2784 53.3346C70.174 56.5679 65.113 64.5189 65.113 64.5189C65.113 64.5189 58.1213 74.9684 51.4001 68.0315C44.6862 61.0946 42.6604 56.2887 42.6604 56.2887C42.6604 56.2887 39.6252 50.7406 44.4083 50.4614V50.4761Z" stroke="#567490" stroke-width="2.5" stroke-miterlimit="10" stroke-linecap="round"/>
<path d="M44.1602 46.6845C44.1602 46.6845 47.444 44.0905 55.7229 45.7586C64.0019 47.4194 70.2769 45.9423 70.2769 45.9423" stroke="#567490" stroke-width="2.5" stroke-miterlimit="10" stroke-linecap="round"/>
<path d="M47.1063 70.4199C47.1063 70.4199 49.6953 77.9962 56.6212 77.3789C63.5472 76.7616 66.0045 70.4199 66.0045 70.4199C66.0045 70.4199 68.5789 73.3152 79.2567 74.9172C86.6508 75.2846 88.2159 83.0813 88.2159 83.0813H24.5293C24.5293 83.0813 26.1237 75.652 35.5728 74.4248C45.0219 73.1903 47.1063 70.4199 47.1063 70.4199Z" stroke="#567490" stroke-width="2.5" stroke-miterlimit="10" stroke-linecap="round"/>
<path d="M20.8145 29.1358C25.7219 23.889 31.7848 19.7445 38.6011 17.1211" stroke="#567490" stroke-width="2.5" stroke-miterlimit="10" stroke-linecap="round"/>
<path d="M12.6454 83.0805C9.57366 76.7315 7.84766 69.5961 7.84766 62.064C7.84766 60.9176 7.88422 59.7786 7.96467 58.6543" stroke="#567490" stroke-width="2.5" stroke-miterlimit="10" stroke-linecap="round"/>
<path d="M103.597 62.0645C103.597 69.604 101.871 76.7319 98.7988 83.081" stroke="#567490" stroke-width="2.5" stroke-miterlimit="10" stroke-linecap="round"/>
<path d="M73.4277 17.3496C82.2698 20.8842 89.8101 26.9908 95.1417 34.7507" stroke="#567490" stroke-width="2.5" stroke-miterlimit="10" stroke-linecap="round"/>
</g>
<defs>
<clipPath id="clip0_1604_5901">
<rect width="112" height="84" fill="white"/>
</clipPath>
</defs>
</svg>
