<svg width="143" height="84" viewBox="0 0 143 84" fill="none" xmlns="http://www.w3.org/2000/svg">
<g clip-path="url(#clip0_1604_5916)">
<path d="M22.3426 21.8002C22.3426 24.0168 20.5422 25.8172 18.3256 25.8172C16.109 25.8172 14.3086 24.0168 14.3086 21.8002C14.3086 19.5836 16.1045 17.7832 18.3256 17.7832C20.5422 17.7832 22.3426 19.5791 22.3426 21.8002Z" stroke="#567490" stroke-width="1.13092" stroke-miterlimit="10"/>
<path d="M12.5038 22.9355L14.1911 25.7764C14.1911 25.7764 6.55968 34.5614 4.91759 34.4754C3.28002 34.394 0.0727373 29.0108 0.841761 27.6221C1.60626 26.2378 12.4993 22.9355 12.4993 22.9355H12.5038Z" stroke="#567490" stroke-width="1.13092" stroke-miterlimit="10"/>
<path d="M4.96372 9.05543C6.54248 9.12328 14.3548 17.4016 14.3548 17.4016L12.568 20.1791C12.568 20.1791 1.30407 17.2659 0.652659 15.7595C-0.00779607 14.2576 3.38043 8.98305 4.96372 9.05543Z" stroke="#567490" stroke-width="1.13092" stroke-miterlimit="10"/>
<path d="M31.3918 9.00074C29.813 9.06859 22.0006 17.3469 22.0006 17.3469L23.7875 20.1244C23.7875 20.1244 35.0514 17.2112 35.7028 15.7048C36.3633 14.203 32.975 8.92836 31.3918 9.00074Z" stroke="#567490" stroke-width="1.13092" stroke-miterlimit="10"/>
<path d="M35.9679 27.6572C36.7369 29.0415 33.5296 34.4292 31.892 34.5106C30.25 34.592 22.623 25.807 22.623 25.807L24.3149 22.9707C24.3149 22.9707 35.2079 26.273 35.9724 27.6572H35.9679Z" stroke="#567490" stroke-width="1.13092" stroke-miterlimit="10"/>
<path d="M17.0726 16.2495C17.0726 16.2495 13.4265 5.20275 14.3403 3.8366C15.2496 2.46593 21.5149 2.46593 22.3156 3.8366C23.1117 5.20275 20.3749 16.2495 20.3749 16.2495H17.0726Z" stroke="#567490" stroke-width="1.13092" stroke-miterlimit="10"/>
<path d="M106.655 77.8559V42.9829H116.331L73.6731 5.02931L31.033 42.9829H40.6865V77.8559H33.8422V60.6659H29.5356L22.8994 37.2966C22.3068 33.646 20.1716 27.1817 20.1716 27.1817H16.8648C16.8648 27.1817 15.1006 34.311 14.8247 37.8214L8.33772 60.6659H4.46094V83.429H142.121V77.8513H132.449V18.1525C132.449 8.47635 125.198 0.564453 116.331 0.564453C107.465 0.564453 100.209 8.47635 100.209 18.1525V28.5433" stroke="#567490" stroke-width="1.15" stroke-miterlimit="10"/>
<path d="M23.1381 45.6342H14.7422L16.2486 40.3279C17.7504 40.726 20.1163 40.717 21.6227 40.3008L23.1381 45.6342Z" stroke="#567490" stroke-width="1.13092" stroke-miterlimit="10"/>
<path d="M25.4007 53.6092H12.4766L14.2272 47.457H23.6545L25.4007 53.6092Z" stroke="#567490" stroke-width="1.13092" stroke-miterlimit="10"/>
<path d="M27.4093 60.6675H10.4727L11.9655 55.4336H25.921L27.4093 60.6675Z" stroke="#567490" stroke-width="1.13092" stroke-miterlimit="10"/>
<path d="M100.101 48.5352H81.4727V60.2605H100.101V48.5352Z" stroke="#567490" stroke-width="1.15" stroke-miterlimit="10"/>
<path d="M70.3523 50.0234H53.1035V83.4353H70.3523V50.0234Z" stroke="#567490" stroke-width="1.15" stroke-miterlimit="10"/>
</g>
<defs>
<clipPath id="clip0_1604_5916">
<rect width="142.686" height="84" fill="white"/>
</clipPath>
</defs>
</svg>
