<svg width="23" height="16" viewBox="0 0 23 16" fill="none" xmlns="http://www.w3.org/2000/svg">
<path d="M19.9307 5.03704H3.57031L5.77635 1.30556C6.10556 0.749244 6.70405 0.408203 7.34988 0.408203H16.268C16.9301 0.408203 17.5404 0.766259 17.8637 1.34403L19.9292 5.03704H19.9307Z" stroke="#0E3860" stroke-opacity="0.5" stroke-width="0.685737" stroke-miterlimit="10"/>
<path d="M4.49033 5.03711H19.0057C20.7161 5.03711 22.1046 6.42569 22.1046 8.13607V11.5605C22.1046 12.1368 21.6371 12.6044 21.0608 12.6044H2.43446C1.85817 12.6044 1.39062 12.1368 1.39062 11.5605V8.13607C1.39062 6.42569 2.7792 5.03711 4.48959 5.03711H4.49033Z" stroke="#0E3860" stroke-opacity="0.5" stroke-width="0.685737" stroke-miterlimit="10"/>
<path d="M4.65468 9.07499C5.36682 9.07499 5.94413 8.49768 5.94413 7.78554C5.94413 7.0734 5.36682 6.49609 4.65468 6.49609C3.94254 6.49609 3.36523 7.0734 3.36523 7.78554C3.36523 8.49768 3.94254 9.07499 4.65468 9.07499Z" stroke="#0E3860" stroke-opacity="0.5" stroke-width="0.685737" stroke-miterlimit="10"/>
<path d="M18.9848 9.07499C19.6969 9.07499 20.2742 8.49768 20.2742 7.78554C20.2742 7.0734 19.6969 6.49609 18.9848 6.49609C18.2726 6.49609 17.6953 7.0734 17.6953 7.78554C17.6953 8.49768 18.2726 9.07499 18.9848 9.07499Z" stroke="#0E3860" stroke-opacity="0.5" stroke-width="0.685737" stroke-miterlimit="10"/>
<path d="M2.27909 3.28394H2.95525C3.18237 3.28394 3.36732 3.46889 3.36732 3.696V4.62591C3.36732 4.85303 3.18237 5.03798 2.95525 5.03798H1.41206C1.18495 5.03798 1 4.85303 1 4.62591V4.56229C1 3.85654 1.57333 3.2832 2.27909 3.2832V3.28394Z" stroke="#0E3860" stroke-opacity="0.5" stroke-width="0.685737" stroke-miterlimit="10"/>
<path d="M22.086 5.03637H20.5428C20.3157 5.03637 20.1307 4.85142 20.1307 4.62431V3.6944C20.1307 3.46728 20.3157 3.28234 20.5428 3.28234H21.219C21.9247 3.28234 22.498 3.85567 22.498 4.56143V4.62505C22.498 4.85216 22.3131 5.03711 22.086 5.03711V5.03637Z" stroke="#0E3860" stroke-opacity="0.5" stroke-width="0.685737" stroke-miterlimit="10"/>
<path d="M15.9258 9.90359H7.94722C7.66092 9.90359 7.44639 9.64097 7.50335 9.36059L7.68904 8.44843C7.73194 8.23759 7.91763 8.08594 8.13291 8.08594H15.7031C15.9118 8.08594 16.0937 8.22872 16.1433 8.43142L16.366 9.34357C16.4355 9.62913 16.2195 9.90359 15.9258 9.90359Z" stroke="#0E3860" stroke-opacity="0.5" stroke-width="0.685737" stroke-miterlimit="10" stroke-linecap="round"/>
<path d="M2.95312 12.6035H5.77467V14.2947C5.77467 14.6712 5.46914 14.976 5.09333 14.976H3.63521C3.25866 14.976 2.95386 14.6705 2.95386 14.2947V12.6035H2.95312Z" stroke="#0E3860" stroke-opacity="0.5" stroke-width="0.685737" stroke-miterlimit="10"/>
<path d="M17.6953 12.6035H20.5169V14.2947C20.5169 14.6712 20.2113 14.976 19.8355 14.976H18.3774C18.0008 14.976 17.6961 14.6705 17.6961 14.2947V12.6035H17.6953Z" stroke="#0E3860" stroke-opacity="0.5" stroke-width="0.685737" stroke-miterlimit="10"/>
</svg>
