<svg width="18" height="14" viewBox="0 0 18 14" fill="none" xmlns="http://www.w3.org/2000/svg">
<path d="M2.31608 13.1661C1.48456 11.9166 1 10.4163 1 8.80287C1 4.44701 4.531 0.916016 8.88686 0.916016C13.2427 0.916016 16.7737 4.44701 16.7737 8.80287C16.7737 10.4274 16.2825 11.9373 15.4406 13.192" stroke="#0E3860" stroke-opacity="0.5" stroke-width="1.0357" stroke-miterlimit="10"/>
<path d="M8.88867 0.408203V3.41099" stroke="#0E3860" stroke-opacity="0.5" stroke-width="1.0357" stroke-miterlimit="10"/>
<path d="M1.75977 4.61719L4.23139 6.04423" stroke="#0E3860" stroke-opacity="0.5" stroke-width="1.0357" stroke-miterlimit="10"/>
<path d="M1.58594 12.9483L4.18629 11.4473" stroke="#0E3860" stroke-opacity="0.5" stroke-width="1.0357" stroke-miterlimit="10"/>
<path d="M16.0515 12.9737L13.4512 11.4727" stroke="#0E3860" stroke-opacity="0.5" stroke-width="1.0357" stroke-miterlimit="10"/>
<path d="M16.0957 4.625L13.4961 6.12603" stroke="#0E3860" stroke-opacity="0.5" stroke-width="1.0357" stroke-miterlimit="10"/>
<path d="M9.42411 8.32674L8.56892 9.19673L5.37896 5.27734L5.37305 5.28326L9.42411 8.32674Z" fill="#0E3860" fill-opacity="0.5"/>
<path d="M8.9963 9.37151C9.33297 9.37151 9.60589 9.09859 9.60589 8.76193C9.60589 8.42526 9.33297 8.15234 8.9963 8.15234C8.65964 8.15234 8.38672 8.42526 8.38672 8.76193C8.38672 9.09859 8.65964 9.37151 8.9963 9.37151Z" fill="#0E3860" fill-opacity="0.5"/>
</svg>
