<svg width="13" height="11" viewBox="0 0 13 11" fill="none" xmlns="http://www.w3.org/2000/svg">
<path d="M13 3.29408V9.05413C13 9.37333 12.8863 9.64658 12.659 9.87388C12.4317 10.1012 12.1585 10.2148 11.8393 10.2148H1.16071C0.841518 10.2148 0.568266 10.1012 0.34096 9.87388C0.113653 9.64658 0 9.37333 0 9.05413V3.29408C0.212798 3.53106 0.457031 3.74144 0.732701 3.92522C2.48344 5.11495 3.68527 5.94922 4.33817 6.42801C4.61384 6.63114 4.83752 6.78953 5.00921 6.90318C5.1809 7.01683 5.40941 7.13291 5.69475 7.25139C5.9801 7.36988 6.24609 7.42913 6.49275 7.42913H6.5H6.50725C6.75391 7.42913 7.0199 7.36988 7.30525 7.25139C7.59059 7.13291 7.8191 7.01683 7.99079 6.90318C8.16248 6.78953 8.38616 6.63114 8.66183 6.42801C9.484 5.83315 10.6882 4.99888 12.2746 3.92522C12.5502 3.73661 12.792 3.52623 13 3.29408ZM13 1.16127C13 1.54334 12.8815 1.90848 12.6445 2.2567C12.4076 2.60491 12.1125 2.90234 11.7595 3.149C9.94103 4.41127 8.80934 5.19717 8.3644 5.5067C8.31603 5.54055 8.21326 5.6143 8.05608 5.72796C7.8989 5.84161 7.76832 5.9335 7.66434 6.00363C7.56036 6.07375 7.43462 6.15234 7.28711 6.2394C7.1396 6.32645 7.00056 6.39174 6.86998 6.43527C6.7394 6.47879 6.61849 6.50056 6.50725 6.50056H6.5H6.49275C6.38151 6.50056 6.2606 6.47879 6.13002 6.43527C5.99944 6.39174 5.8604 6.32645 5.71289 6.2394C5.56538 6.15234 5.43964 6.07375 5.33566 6.00363C5.23168 5.9335 5.1011 5.84161 4.94392 5.72796C4.78674 5.6143 4.68397 5.54055 4.6356 5.5067C4.1955 5.19717 3.56194 4.75586 2.73493 4.18276C1.90792 3.60965 1.4122 3.26507 1.24777 3.149C0.947917 2.94587 0.664993 2.66657 0.398996 2.3111C0.132998 1.95564 0 1.62556 0 1.32087C0 0.943638 0.100353 0.629278 0.30106 0.377789C0.501767 0.126302 0.788318 0.000557899 1.16071 0.000557899H11.8393C12.1536 0.000557899 12.4257 0.114211 12.6554 0.341517C12.8851 0.568824 13 0.842075 13 1.16127Z" fill="white"/>
</svg>
