<svg width="18" height="16" viewBox="0 0 18 16" fill="none" xmlns="http://www.w3.org/2000/svg">
<path d="M5.04499 1.09407C5.8975 1.09407 6.94854 1.69806 8.19811 2.90603L9.0039 3.67526L9.79218 2.88894C9.96736 2.7066 10.1513 2.53566 10.344 2.37612C10.5367 2.21657 10.7264 2.06843 10.9133 1.93167C11.1001 1.79492 11.2841 1.67526 11.4651 1.5727C11.6461 1.47013 11.8184 1.38182 11.9818 1.30774C12.1453 1.23367 12.3059 1.17954 12.4636 1.14535C12.6212 1.11116 12.7643 1.09407 12.8928 1.09407C13.9321 1.09407 14.8489 1.48153 15.643 2.25646C16.4488 3.04278 16.8517 3.98865 16.8517 5.09407C16.8517 6.19948 16.4488 7.15105 15.643 7.94877C15.5846 7.99435 13.4883 10.1995 9.35425 14.5642C9.29586 14.6211 9.23163 14.6582 9.16156 14.6753C9.09149 14.6924 9.0331 14.7009 8.98639 14.7009C8.84625 14.7009 8.72363 14.6553 8.61852 14.5642C4.83478 10.4616 2.73854 8.21088 2.3298 7.81202C2.23638 7.72085 2.14587 7.62113 2.05829 7.51287C1.9707 7.40461 1.88895 7.29635 1.81304 7.18808C1.73713 7.07982 1.66707 6.96871 1.60284 6.85475C1.5386 6.74079 1.48021 6.62398 1.42766 6.50432C1.37511 6.38466 1.33132 6.26216 1.29628 6.1368C1.26125 6.01145 1.22913 5.88609 1.19994 5.76073C1.17074 5.63538 1.1503 5.50432 1.13863 5.36757C1.12695 5.23082 1.12111 5.09976 1.12111 4.97441C1.12111 3.8576 1.52401 2.90603 2.3298 2.11971C2.70351 1.76643 3.11224 1.50717 3.55602 1.34193C3.99979 1.17669 4.49611 1.09407 5.04499 1.09407ZM5.04499 4.95911e-05C4.35597 4.95911e-05 3.71951 0.108312 3.1356 0.324836C2.55169 0.54136 2.02033 0.88324 1.54152 1.35048C1.03936 1.84051 0.6569 2.40461 0.39414 3.04278C0.13138 3.68096 0 4.32199 0 4.96586C0 5.60974 0.13138 6.25076 0.39414 6.88894C0.6569 7.52711 1.03936 8.09122 1.54152 8.58125C1.64663 8.68381 1.93566 8.98865 2.40863 9.49578C2.8816 10.0029 3.41296 10.5755 4.00271 11.2137C4.59246 11.8519 5.17637 12.4844 5.75444 13.1112C6.33251 13.7379 6.82008 14.2622 7.21714 14.6838C7.6142 15.1055 7.81273 15.3163 7.81273 15.3163C8.12804 15.6354 8.51634 15.7949 8.97763 15.7949C9.43892 15.7949 9.83306 15.6354 10.16 15.3163C14.2941 10.9516 16.3845 8.75219 16.4312 8.718C17.4589 7.71515 17.9728 6.50717 17.9728 5.09407C17.9728 3.68096 17.4589 2.47868 16.4312 1.48723C15.9174 0.985805 15.3715 0.612585 14.7934 0.367571C14.2153 0.122557 13.5818 4.95911e-05 12.8928 4.95911e-05C12.2738 4.95911e-05 11.6227 0.199479 10.9396 0.59834C10.2564 0.9972 9.60533 1.50432 8.98639 2.11971C7.51493 0.706602 6.20113 4.95911e-05 5.04499 4.95911e-05Z" fill="white"/>
</svg>
