<svg width="20" height="20" viewBox="0 0 20 20" fill="none" xmlns="http://www.w3.org/2000/svg">
<path d="M10.0013 1.66602C5.41797 1.66602 1.66797 5.41602 1.66797 9.99935C1.66797 14.5827 5.41797 18.3327 10.0013 18.3327C14.5846 18.3327 18.3346 14.5827 18.3346 9.99935C18.3346 5.41602 14.5846 1.66602 10.0013 1.66602ZM13.0846 10.5827C12.7513 10.916 12.2513 10.916 11.918 10.5827L10.8346 9.49935V12.4993C10.8346 12.9993 10.5013 13.3327 10.0013 13.3327C9.5013 13.3327 9.16797 12.9993 9.16797 12.4993V9.49935L8.08464 10.5827C7.7513 10.916 7.2513 10.916 6.91797 10.5827C6.58464 10.2493 6.58464 9.74935 6.91797 9.41602L9.41797 6.91602C9.7513 6.58268 10.2513 6.58268 10.5846 6.91602L13.0846 9.41602C13.418 9.74935 13.418 10.2493 13.0846 10.5827Z" fill="white"/>
</svg>
